<svg width="87" height="82" viewBox="0 0 87 82" fill="none" xmlns="http://www.w3.org/2000/svg">
<path d="M42.9206 6.33807C44.4736 6.37623 45.9774 6.7058 47.4952 6.99373C49.2843 7.33371 51.0134 7.87143 52.7074 8.48893C54.7112 9.22092 56.6376 10.1437 58.4829 11.2261C60.1522 12.2044 61.744 13.2937 63.2478 14.5009C64.0895 15.174 64.8854 15.899 65.7024 16.5998C65.8679 17.0924 65.6954 17.5295 65.477 17.9597C65.1988 18.2684 64.8783 18.1956 64.6213 17.9736C64.1705 17.5781 63.762 17.6683 63.3182 17.9562C62.7653 18.317 62.1561 18.5772 61.5891 18.9068C61.2616 19.0941 61.2862 19.2502 61.5679 19.4445C61.7898 19.6006 62.0187 19.7289 62.2934 19.7671C63.0048 20.0446 63.6422 19.8573 64.2444 19.4653C64.91 19.2433 65.4805 18.8512 66.0863 18.5182C66.4807 18.3517 66.7906 17.9597 67.2907 18.0533C67.252 18.546 67.6887 18.768 67.9457 19.0559C69.4002 20.7003 70.6504 22.48 71.7844 24.3498C72.9853 26.3307 73.9643 28.4122 74.7497 30.5735C75.211 31.8397 75.6477 33.1198 75.9048 34.452C75.9541 34.7121 75.8484 35.1388 76.3203 35.2082C76.4154 35.3227 76.3837 35.4441 76.3274 35.5551C75.9259 36.3392 75.4857 37.0989 75.0067 37.8378C74.8553 38.0668 74.644 38.1743 74.3693 38.0148C73.9608 37.7546 73.8129 37.3279 73.6579 36.9081C73.5523 36.6965 73.5945 36.4224 73.3656 36.2698C72.295 36.3218 71.2561 36.5577 70.2137 36.7728C69.9778 36.8804 70.094 37.0677 70.1257 37.2203C70.1891 37.5221 70.3158 37.8101 70.4074 38.105C70.6081 38.6947 70.9181 39.2185 71.397 39.6314C71.4357 39.6591 71.471 39.6938 71.5062 39.725C71.964 40.0477 72.4359 39.9991 72.9148 39.7805C73.0416 39.7042 73.1684 39.6314 73.2952 39.5585C74.1827 38.8716 75.1476 38.2784 75.9365 37.4666C76.0632 37.3348 76.183 37.1579 76.4189 37.196C76.6162 38.2749 76.7852 39.3573 76.8556 40.457C76.9261 41.5567 76.9824 42.6565 76.9683 43.7597C76.9613 44.1655 76.8944 44.5575 76.8627 44.9565C76.8134 45.574 76.9049 45.6365 77.5107 45.5046C78.2185 45.352 78.9264 45.1889 79.6413 45.0606C79.8878 45.0155 80.1695 44.9322 80.3985 45.1473C79.7681 45.404 79.0849 45.4526 78.4298 45.6018C77.1409 45.8897 75.8379 46.136 74.5348 46.3615C73.9009 46.4725 73.6051 46.816 73.4642 47.3745C73.2635 48.1793 73.1543 48.998 73.1297 49.8237C73.0135 50.8853 72.9219 51.9468 72.9289 53.0153C72.9325 53.4281 73.0909 53.5392 73.4854 53.442C73.8974 53.3414 74.3235 53.2963 74.7391 53.1992C74.9786 53.1437 75.2286 53.0847 75.454 53.2616C74.7004 55.8184 73.6685 58.2606 72.3831 60.5988C71.323 62.5312 70.0764 64.349 68.6712 66.0558C67.7027 67.2284 66.685 68.3558 65.5862 69.4105C64.0754 70.8571 62.4519 72.1615 60.7192 73.341C57.9617 75.2178 55.007 76.7165 51.8445 77.7884C49.5766 78.5551 47.2522 79.1171 44.8575 79.4363C42.748 79.7173 40.6455 79.8421 38.5255 79.8317C36.902 79.8213 35.3031 79.5785 33.7008 79.3842C32.2181 79.2038 30.7707 78.8326 29.3339 78.4441C27.2913 77.889 25.3121 77.164 23.4174 76.2169C23.0476 76.033 22.6814 75.7694 22.2235 75.8075C22.1989 75.7798 22.1848 75.752 22.1883 75.7208C22.1883 75.6861 22.1918 75.6722 22.1989 75.6722C22.2376 75.6029 22.294 75.5543 22.3679 75.5196C22.6109 75.4537 22.8539 75.3774 23.0652 75.2282C23.3012 75.0305 23.5794 74.916 23.8717 74.8223C26.5517 73.9516 29.2247 73.06 31.9047 72.1823C32.1054 72.1164 32.3097 72.0678 32.5175 72.0366C32.5879 72.0227 32.5069 71.929 32.5351 71.995C32.5421 72.0158 32.5316 72.0262 32.4928 72.0297C31.8871 72.0886 31.3307 71.8874 30.7742 71.707C29.5311 71.3115 28.3443 70.7773 27.1751 70.2049C27.0307 70.1355 26.8898 70.0592 26.7278 70.028C25.7628 69.5943 24.8965 68.9976 23.9774 68.4842C23.8682 68.4252 23.7872 68.3246 23.8259 68.1824C24.1675 68.0991 24.4352 67.9326 24.6007 67.603C24.7239 67.3602 24.9388 67.2457 25.224 67.3324C25.4917 67.4122 25.6607 67.3047 25.8051 67.0861C26.1467 66.5623 26.6714 66.2605 27.2314 66.0315C27.6188 65.8719 27.9674 65.6846 28.2104 65.3342C28.3513 65.1261 28.5203 64.9491 28.7704 64.8624C28.8373 64.8381 28.9289 64.8173 28.9535 64.7583C29.2458 64.1166 29.8656 63.9813 30.4538 63.7627C30.8658 63.6101 31.2285 63.5719 31.6265 63.78C32.0315 63.9917 32.4365 64.2172 32.8802 64.3559C33.8099 64.7514 34.6023 65.3793 35.5003 65.8303C35.7187 65.9413 35.9335 66.0697 36.1413 66.2015C37.5958 66.9612 39.0467 67.721 40.6209 68.2171C41.4802 68.5813 42.3853 68.6195 43.3009 68.564C43.4277 68.557 43.5474 68.5224 43.6601 68.4634C45.3646 67.5926 47.2417 67.1902 49.0237 66.5207C50.302 66.0419 51.6121 65.643 52.9151 65.1642C51.5522 64.8069 50.3267 64.1686 49.1011 63.5337C47.3649 62.5589 45.6851 61.5008 44.0545 60.3664C43.8503 60.2242 43.6496 60.0785 43.4206 59.9744C42.8889 59.7142 42.417 59.3708 41.9697 58.9961C40.7441 57.9762 39.4341 57.0673 38.1698 56.0959C36.821 54.9962 35.4229 53.9624 34.0776 52.8627C33.7747 52.6164 33.5 52.3388 33.1831 52.1064C33.0492 52.0058 32.8837 51.8913 32.9788 51.6728C33.1126 51.5583 33.2746 51.5756 33.4366 51.5791C34.0212 51.5895 34.4509 51.3085 34.6516 50.75C34.7397 50.5002 34.8594 50.2955 35.113 50.2053C35.9582 49.9 36.4759 49.2166 37.0816 48.6199C37.8634 47.8532 38.6417 47.0692 39.7088 46.6737C39.9236 46.6564 40.0856 46.7674 40.2335 46.8957C42.1493 48.5575 44.0898 50.1914 46.0196 51.8358C46.6676 52.3874 47.3156 52.939 48.0235 53.4212C49.8055 54.854 51.679 56.1653 53.535 57.4974C53.5772 57.5217 53.6195 57.5529 53.6582 57.5807C54.1548 57.9727 54.6549 58.3543 55.1902 58.6943C55.2888 58.7637 55.3768 58.8435 55.4648 58.9233C55.655 59.0967 55.8804 59.2216 56.0987 59.3569C56.472 59.6552 56.9404 59.8218 57.275 60.1721C57.5039 60.3699 57.7434 60.5503 58.0005 60.7099C58.1237 60.7792 58.247 60.8486 58.3597 60.9388C58.5463 61.0915 58.7471 61.2198 58.9408 61.3655C59.5078 61.7402 60.1064 62.0559 60.7615 62.2467C61.2263 62.382 61.3073 62.3265 61.4306 61.8547C61.5644 61.3343 61.413 60.8833 61.1066 60.4635C60.0607 58.6145 58.8034 56.9077 57.4476 55.2703C55.655 53.1055 53.8343 50.9616 51.9185 48.9009C51.1226 48.0475 50.3161 47.201 49.5695 46.3025C49.33 46.0146 49.0448 45.7752 48.7243 45.5809C48.6961 45.5358 48.6821 45.4873 48.6821 45.4352C49.2737 44.4708 49.6188 43.3919 50.133 42.3893C50.3161 42.1292 50.4359 41.8377 50.5802 41.5602C50.6014 41.5151 50.6296 41.4735 50.6577 41.4353C50.7493 41.307 50.8268 41.1682 50.9148 41.0329C51.3515 40.3634 51.355 40.3564 50.6789 39.9679C49.897 39.5169 49.1082 39.0694 48.3299 38.6115C48.0094 38.4241 47.777 38.438 47.5657 38.7537C47.379 39.0312 47.1536 39.281 46.9987 39.5828C46.65 40.2315 46.319 40.8837 46.0654 41.5741C45.9985 41.7545 45.9316 41.9349 45.7837 42.0702C45.6464 42.143 45.5266 42.0875 45.4069 42.0285C44.6955 41.3902 44.051 40.6825 43.3854 39.9991C41.3781 37.9454 39.346 35.9159 37.2471 33.9559C35.4863 32.3115 33.7289 30.6602 31.9012 29.0852C29.5768 27.0835 27.2525 25.0749 24.738 23.3056C24.2591 22.9691 23.7766 22.6361 23.2589 22.3551C21.9348 21.5294 21.2269 21.7861 20.7127 23.2848C20.0964 24.8667 19.4696 26.4417 18.8568 28.0271C18.4694 28.4018 18.3426 28.9117 18.1665 29.387C17.3002 31.7391 16.462 34.0981 15.5218 36.4224C15.476 36.5369 15.4408 36.6549 15.4408 36.7832C15.5288 37.1509 15.3774 37.477 15.2541 37.8066C13.9546 41.2688 12.7467 44.7657 11.4472 48.2314C11.3626 48.4603 11.3098 48.7066 11.1302 48.894C10.933 49.057 10.8132 49.2652 10.7287 49.5045C9.85182 51.9989 8.89744 54.4654 8.0135 56.9597C7.96067 57.1089 7.90432 57.2581 7.89728 57.4176C7.96419 57.7715 7.90785 58.108 7.77754 58.4376C7.50989 59.121 7.28803 59.8183 7.00629 60.4948C6.93938 60.6544 6.94642 60.8937 6.67173 60.8903C6.70695 60.6093 6.58016 60.3768 6.45338 60.1444C5.4814 58.3439 4.64323 56.474 4.01637 54.5348C3.30851 52.3492 2.74856 50.1255 2.48091 47.8359C2.25552 45.9175 2.10761 43.9921 2.171 42.0632C2.252 39.6453 2.53021 37.255 3.06199 34.8856C3.59024 32.5301 4.35093 30.2543 5.33701 28.0618C6.49212 25.4912 7.96419 23.0905 9.6863 20.8287C11.0774 19.0074 12.6304 17.3422 14.3138 15.8019C16.3282 13.9598 18.5398 12.3709 20.9416 11.0353C23.0406 9.86618 25.2099 8.85666 27.5026 8.11426C27.6787 8.05529 27.971 8.02407 27.8266 7.69797C28.1999 7.54533 28.4076 7.86102 28.6753 7.99285C29.2634 8.28078 29.2564 8.29466 29.4606 7.70491C29.6085 7.08393 29.6825 6.46642 29.4818 5.84198C29.4325 5.69281 29.4078 5.53323 29.5205 5.39099C29.9079 5.783 29.8868 6.28256 29.8586 6.76824C29.8339 7.22617 29.9642 7.33024 30.4467 7.2331C32.3696 6.84456 34.2818 6.36582 36.261 6.33113C36.4547 6.32766 36.6414 6.24787 36.8351 6.23746C37.8071 6.17155 37.793 6.17502 37.8141 5.18978C37.8211 4.90878 37.6803 4.59309 37.9303 4.33984C38.0853 4.51677 38.0606 4.73533 38.0641 4.94347C38.0677 5.55751 38.0641 6.17502 38.0677 6.78905C38.0677 7.59043 38.0677 7.59736 38.8424 7.78123C39.9236 8.04141 40.959 8.41955 41.9345 8.94686C41.9662 8.9642 41.9944 8.98155 42.0225 9.00236C42.8924 9.6164 42.8924 9.6164 42.1282 10.3415C42.0894 10.3761 42.0507 10.4039 42.0084 10.4316C41.6985 10.6259 41.4133 10.8549 41.1245 11.0804C39.6102 12.1107 37.9726 12.9329 36.3632 13.7967C34.4086 14.8444 32.3977 15.8019 30.6052 17.1236C30.3023 17.3387 30.0065 17.5573 29.7318 17.8105C29.0345 18.4558 28.633 19.2016 28.714 20.1834C28.7669 20.846 28.7281 21.5155 28.7246 22.1816C28.7316 22.584 28.707 22.9865 28.7387 23.3889C28.7669 23.7289 28.8866 24.0341 29.1402 24.2804C29.7459 25.0055 30.5629 25.4218 31.4046 25.8103C31.7286 25.9803 32.0526 26.1434 32.4083 26.2474C33.0739 26.4972 33.7325 26.7678 34.4192 26.9621C34.9087 27.0974 34.9756 27.0488 34.9791 26.5354C34.9862 25.852 34.9721 25.1651 34.9862 24.4817C34.9932 24.1278 34.8418 23.9439 34.5002 23.8364C33.4824 23.5138 32.4646 23.1877 31.4926 22.7471C31.144 22.5147 30.7531 22.362 30.3833 22.1608C29.3022 21.4219 29.3022 21.4219 30.1861 20.447C30.2354 20.3881 30.2953 20.343 30.3622 20.3048C30.7179 20.1314 31.0384 19.9059 31.3447 19.6596C33.3169 18.4072 35.4193 17.3873 37.476 16.2806C39.265 15.3197 41.0717 14.3795 42.5613 12.9676C43.1424 12.4472 43.4876 11.8297 43.4629 11.0249C43.4347 10.109 43.4418 9.19317 43.4629 8.27731C43.477 7.69797 43.4136 7.15331 43.0509 6.67457C42.9382 6.58438 42.8783 6.46989 42.9206 6.33807Z" fill="#E5F1FE"/>
<path d="M22.2147 75.6926C22.2111 75.7308 22.2076 75.769 22.2076 75.8071C21.3589 75.7447 20.651 76.2095 19.8868 76.4385C18.3091 76.9138 16.7807 77.5764 15.1818 77.9372C14.4282 78.1072 13.7696 78.6032 12.9632 78.5443C12.9632 78.3327 13.185 78.3465 13.3189 78.1974C11.0192 77.8053 9.01534 76.7056 6.92698 75.8175C6.09233 75.5539 5.45491 74.9364 4.63435 74.6276C4.10962 74.4299 3.59545 74.2009 3.05663 74.0309C2.68333 73.7464 2.30651 73.795 1.92969 74.024C2.19381 73.2122 2.42977 72.3866 2.72911 71.5852C3.19045 70.3502 3.59897 69.0978 4.18005 67.9079C4.33148 67.5957 4.22231 67.1967 4.50405 66.9261C5.05695 66.8429 5.48308 67.1482 5.93386 67.3771C7.62075 68.4317 9.29003 69.5141 10.9452 70.6138C11.3009 70.8497 11.6496 71.0926 12.0334 71.2868C12.4842 71.6199 12.9913 71.8627 13.4738 72.1402C15.2664 73.2018 17.0765 74.2321 19.0522 74.9468C19.6931 75.1792 20.3552 75.3284 21.0102 75.5053C21.3976 75.6475 21.8449 75.422 22.2147 75.6926Z" fill="#EAE8EA"/>
<path d="M75.4451 53.266C74.6774 53.3077 73.9448 53.547 73.1912 53.665C72.9552 53.7031 72.758 53.7413 72.758 53.4117C72.7545 52.201 72.7932 50.9972 72.9729 49.7969C73.1489 49.1204 73.1137 48.4092 73.3039 47.7327C73.3814 47.4552 73.4659 47.1916 73.7194 47.0181C73.9026 46.8932 74.0892 46.7995 74.3146 46.9244C74.3851 46.9626 74.4872 47.0875 74.5365 47.0042C74.8851 46.411 75.3923 46.8169 75.8254 46.7961C75.8783 46.7926 75.9416 46.8273 75.9839 46.7995C76.8714 46.2098 78.0406 46.4561 78.9175 45.8421C78.9914 45.79 79.0619 45.7415 79.1288 45.6825C79.245 45.5819 79.3577 45.3807 79.5197 45.4952C79.7063 45.627 79.6324 45.8559 79.5338 46.0259C79.407 46.248 79.326 46.4734 79.3401 46.7267C79.245 47.2644 79.2485 47.816 79.1534 48.3537C79.1217 48.5272 79.1182 48.7041 78.9879 48.8463C78.8013 49.8906 78.8294 50.9521 78.8083 52.0067C78.7977 52.4126 78.6851 52.5826 78.2624 52.6728C77.3257 52.8671 76.3607 52.9573 75.4451 53.266Z" fill="#08ACEE"/>
<path d="M6.96685 75.7031C7.83318 75.9737 8.60444 76.4455 9.43203 76.7959C10.7245 77.344 12.024 77.854 13.4186 78.0899C13.4996 78.1038 13.5735 78.1454 13.6757 78.1836C13.4785 78.4333 13.158 78.3709 12.9608 78.5444C12.8199 78.5027 12.7424 78.6033 12.6473 78.6692C12.3269 78.7872 12.0064 78.8982 11.6718 78.9676C10.0448 79.4845 8.41779 80.0049 6.79076 80.5218C5.33278 80.9832 3.8748 81.448 2.41329 81.9025C1.93786 82.0516 1.46948 82.0516 1.04688 81.729C1.94491 80.8028 3.02607 80.0742 3.92058 79.1445C4.17766 78.8774 4.43475 78.6033 4.66014 78.3189C5.38913 77.4099 6.2449 76.612 6.96685 75.7031Z" fill="#029FFC"/>
<path d="M6.96704 75.7045C7.00225 75.812 7.09382 75.9022 6.95295 76.0271C5.93518 76.9256 5.16393 78.0461 4.23772 79.0244C3.52634 79.7738 2.76565 80.4884 1.90988 81.0851C1.61406 81.2898 1.50136 81.7304 1.05411 81.7338C0.219465 81.321 -0.171443 80.478 0.0785974 79.6142C0.141988 79.3991 0.226509 79.1875 0.300464 78.9759C0.751242 77.7443 1.19145 76.5128 1.58941 75.2639C1.59645 75.1529 1.56828 75.0315 1.67745 74.9447C1.87818 74.7713 1.89227 74.5146 1.97327 74.2891C2.19162 73.6854 2.19866 73.6785 2.85369 73.845C2.93822 73.8658 3.0333 73.8381 3.10374 73.9109C4.49833 74.2717 5.69923 75.0557 6.96704 75.7045Z" fill="#0190F5"/>
<path d="M71.3372 6.35131C70.5871 5.74768 69.837 5.14405 69.0868 4.53695C68.9741 4.45022 68.8051 4.43288 68.7488 4.27676C68.4917 3.42683 68.4001 2.55607 68.4318 1.67144C68.4424 1.3731 68.5304 1.11985 68.7805 0.935985C69.189 0.623763 69.5306 0.890887 69.8475 1.0921C70.8829 1.7547 71.7669 2.60464 72.7001 3.38867C73.091 3.71823 73.5383 3.98536 73.8552 4.39818C74.0031 4.70347 73.7531 4.85611 73.5876 5.01569C73.0523 5.52565 72.3479 5.83094 71.8655 6.41028C71.6894 6.62537 71.5133 6.37906 71.3372 6.35131Z" fill="#EB8801"/>
<path d="M41.9383 9.09169C40.7479 8.51928 39.5189 8.05442 38.2193 7.79076C37.9059 7.72832 37.8953 7.53058 37.8989 7.28427C37.9059 6.29903 37.8989 5.31727 37.8989 4.33203C39.304 4.54018 40.6317 4.96341 41.8573 5.685C42.6884 6.0666 43.0089 6.69798 42.875 7.59649C42.8187 7.99197 42.8786 8.4048 42.8609 8.81069C42.8363 9.42126 42.6989 9.50105 42.1742 9.21311C42.0967 9.17148 42.0228 9.12291 41.9383 9.09169Z" fill="#DB5111"/>
<path d="M84.6871 28.3283C85.5992 29.6084 86.1803 31.062 86.9234 32.4323C87.0537 32.6751 87.029 32.807 86.7402 32.8972C85.9584 33.14 85.1836 33.4002 84.4124 33.6673C84.1588 33.754 84.018 33.6881 83.9053 33.4522C83.5989 32.8 83.2784 32.1582 82.9615 31.5095C82.8417 31.121 82.6269 30.774 82.3804 30.4618C82.1479 30.1635 82.1832 29.9068 82.4156 29.6639C82.8664 29.1921 83.2784 28.6891 83.7714 28.2555C84.1588 27.912 84.3349 27.9328 84.6871 28.3283Z" fill="#DB5012"/>
<path d="M81.6661 14.3597C82.8811 14.1134 84.0291 14.4395 85.1737 14.7725C85.3956 14.835 85.3286 15.0119 85.2617 15.1646C84.6842 16.4689 84.0996 17.7733 83.5291 19.0812C83.4058 19.3622 83.2156 19.2963 83.0008 19.2304C82.1098 18.9563 81.2047 18.7482 80.2644 18.8141C79.7327 18.8522 79.2079 18.9494 78.6797 19.0188C78.8628 18.5227 79.3488 18.6996 79.6975 18.5747C80.2433 18.6545 80.5427 18.3874 80.761 17.919C81.1695 17.0483 81.5393 16.1602 81.9689 15.2964C82.2789 14.6581 82.2507 14.6477 81.6661 14.3597Z" fill="#FECD71"/>
<path d="M53.552 4.12096C53.066 3.73588 52.8124 3.18082 52.4673 2.69514C52.0588 2.11926 51.7066 1.50176 51.0586 1.07852C51.4284 0.814867 51.8369 0.745485 52.2102 0.599781C52.5905 0.450608 52.9885 0.339596 53.3688 0.186954C54.1894 -0.146084 54.5416 -0.0593552 55.0557 0.651818C55.2494 0.918942 55.4149 1.20688 55.591 1.48441C55.8974 1.97703 56.394 2.30313 56.7356 2.76799C57.0279 3.16694 57.0244 3.28489 56.556 3.43754C55.7847 3.69078 55.0205 3.97525 54.2457 4.21809C53.971 4.30135 53.7668 4.27013 53.552 4.12096Z" fill="#0262E7"/>
<path d="M69.1325 12.9163C69.0163 14.0195 68.8332 15.1088 68.481 16.1669C68.3507 16.5104 68.1113 16.7463 67.7696 16.8989C67.2837 17.114 66.7906 17.3152 66.3117 17.5476C66.118 17.6413 65.8961 17.7211 65.7095 17.558C65.5475 17.4158 65.6602 17.2285 65.7059 17.0654C66.0757 15.702 66.125 14.304 66.1849 12.9059C67.0266 12.4723 67.8013 11.9033 68.7135 11.5981C69.0058 11.5009 69.2065 11.5495 69.1748 11.9242C69.1466 12.2537 69.2171 12.5868 69.1325 12.9163Z" fill="#DB8603"/>
<path d="M84.6878 28.329C84.3568 28.0411 84.0786 28.0827 83.7828 28.4123C83.3637 28.8806 82.9023 29.3108 82.4727 29.7722C82.286 29.9734 82.286 30.1885 82.4586 30.4383C82.684 30.7644 82.9798 31.0697 82.9622 31.5102C82.5854 31.0662 82.4023 30.5007 81.9656 30.0914C81.6275 29.7757 81.2859 29.5918 80.8175 29.7028C80.5111 29.7861 80.328 30.0254 80.1167 30.2336C79.8596 30.4868 79.6835 30.4001 79.5602 30.1156C79.4088 29.7687 79.363 29.4149 79.518 29.0576C79.518 28.9743 79.5215 28.8876 79.6166 28.8459C79.9864 28.4817 80.1625 27.9821 80.49 27.5866C80.7259 27.1322 81.1027 26.8096 81.5218 26.5355C82.0289 26.2025 82.5889 26.1851 83.0996 26.48C83.8391 26.8998 84.3427 27.5589 84.6878 28.329Z" fill="#D95A30"/>
<path d="M5.88755 67.464C5.43325 67.2628 4.98247 67.0546 4.5 66.9297C4.62326 66.4995 4.75004 66.0694 4.92965 65.6565C5.5882 64.0989 6.15168 62.5066 6.64119 60.89C7.10254 59.9394 7.40188 58.9334 7.74348 57.9412C7.79631 57.7885 7.7294 57.5977 7.71883 57.4277C7.76461 57.3653 7.83153 57.3271 7.90196 57.3549C8.46895 57.5873 8.97256 57.9134 9.39868 58.3471C9.46207 58.4095 9.47968 58.5032 9.4339 58.5934C9.09229 58.6801 8.92677 58.9195 8.79295 59.2317C7.78574 61.5422 6.92997 63.9116 5.88755 66.2081C5.67625 66.6626 5.82064 67.0442 5.88755 67.464Z" fill="#2894F1"/>
<path d="M79.5209 29.0547C79.5632 29.3634 79.5913 29.6722 79.6512 29.9775C79.7146 30.2932 79.8484 30.4146 80.1337 30.1232C80.3203 29.9324 80.4753 29.6548 80.8204 29.7034C79.9329 30.3799 79.4328 31.3235 78.9504 32.2879C78.1263 33.9358 77.4431 35.653 76.4148 37.2002C75.5872 38.0848 74.5623 38.7336 73.6291 39.4898C73.534 39.5662 73.4495 39.6633 73.3086 39.6598C73.3051 39.1915 73.7559 39.0493 73.9883 38.7509C74.1538 38.5358 74.4285 38.3867 74.3405 38.0536C74.3405 38.0016 74.3616 37.9634 74.4074 37.9357C74.5905 38.0189 74.7525 38.0189 74.8652 37.8281C75.3688 36.9678 75.9464 36.1456 76.3161 35.2124C76.8726 34.3555 77.2459 33.405 77.7107 32.503C78.3059 31.3443 78.7778 30.1336 79.5209 29.0547Z" fill="#D87D64"/>
<path d="M68.8861 4.31475C68.953 4.3876 69.0235 4.46392 69.0904 4.53677C68.7805 4.50902 68.8086 4.69982 68.8368 4.9045C68.9143 5.48385 69.0199 6.05972 69.0129 6.64948C68.6466 6.3546 68.2945 6.45174 67.9106 6.64601C67.3894 6.90966 66.9069 7.24964 66.3329 7.41616C66.0829 7.48901 66.0265 7.69022 66.0617 7.92265C66.1005 8.18284 66.1568 8.44302 66.1568 8.70668C66.1603 8.85238 66.1674 8.99462 66.1603 9.14032C66.1181 9.44213 66.2554 9.77517 66.0019 10.0423C65.8046 9.55315 65.8892 9.03625 65.8575 8.53322C65.7624 6.90273 65.4595 5.28958 65.4595 3.65214C65.4595 3.41277 65.3996 3.15606 65.5687 2.9375C65.8293 3.22544 65.7131 3.57582 65.7201 3.89845C65.7272 4.29046 65.8856 4.35985 66.2202 4.21067C66.7907 3.95743 67.3366 3.65214 67.9036 3.3989C68.453 3.15606 68.5692 3.22197 68.6854 3.79438C68.7206 3.97824 68.6889 4.18986 68.8861 4.31475Z" fill="#FEEE71"/>
<path d="M79.7416 18.7022C79.3859 18.8063 78.9738 18.7299 78.6745 19.0179C78.2272 19.1358 77.8539 19.4064 77.375 19.6527C77.6321 18.8063 78.0441 18.109 78.347 17.37C78.5336 16.9156 78.752 16.4715 78.9598 16.024C79.4246 15.011 80.2804 14.5739 81.351 14.4629C81.5693 14.56 81.5623 14.7404 81.4883 14.9104C80.9354 16.1836 80.4213 17.481 79.7416 18.7022Z" fill="#F89138"/>
<path d="M78.9937 48.8455C78.9761 48.0962 79.1169 47.3607 79.212 46.6253C79.3811 46.0355 79.9375 46.0633 80.3707 46.0043C80.7827 45.9488 80.8989 45.8135 80.8215 45.4492C81.7019 46.0355 82.0646 46.9375 82.3252 47.8915C82.3851 48.1135 82.2266 48.1829 82.0224 48.2245C81.0116 48.4223 80.0044 48.6339 78.9937 48.8455Z" fill="#51DAFE"/>
<path d="M69.1299 12.9151C69.1229 12.6029 69.1017 12.2872 69.1193 11.975C69.1369 11.6523 68.989 11.6176 68.739 11.7286C68.3727 11.8952 67.9713 12.0201 67.6543 12.2525C67.2176 12.5716 66.7351 12.752 66.228 12.9012C66.1118 12.7382 66.1928 12.5508 66.1682 12.3774C66.2069 11.9368 66.1153 11.5066 66.0625 11.073C66.0766 10.681 66.2597 10.4347 66.6506 10.2994C67.3409 10.06 67.9466 9.63675 68.6157 9.34535C69.0771 9.14414 69.1334 9.1823 69.1863 9.70267C69.2708 10.7712 69.306 11.8431 69.1299 12.9151Z" fill="#EAA605"/>
<path d="M68.8839 4.31644C68.588 4.23665 68.5986 3.96953 68.5951 3.76138C68.5845 3.29998 68.3626 3.3208 68.0457 3.47691C67.4716 3.76138 66.9047 4.04932 66.3236 4.32338C65.6263 4.64948 65.584 4.62172 65.577 3.88627C65.5735 3.57057 65.5699 3.25488 65.5664 2.93919C65.5734 2.72757 65.665 2.55759 65.8517 2.46045C66.8272 1.94702 67.8062 1.44399 68.7817 0.9375C68.3732 1.83601 68.6479 2.74839 68.7395 3.6573C68.7606 3.8828 68.831 4.09788 68.8839 4.31644Z" fill="#FCD731"/>
<path d="M80.8221 45.4456C80.8433 45.6503 81.213 45.7197 81.0651 45.966C80.9348 46.1776 80.6707 46.0458 80.477 46.0978C80.0333 46.2123 79.5226 46.188 79.2127 46.6216C79.0859 46.2088 79.6283 45.9625 79.4804 45.4664C79.1 46.1845 78.2478 46.07 77.7653 46.5661C77.7301 46.6008 77.5998 46.5592 77.5153 46.5384C77.0152 46.4239 76.5679 46.5106 76.1981 46.8853C76.0608 47.0241 75.9305 47.0934 75.7438 46.9235C75.4938 46.698 75.1311 47.0588 74.8529 46.7882C74.8106 46.7465 74.7049 46.9477 74.6944 47.0726C74.6873 47.1732 74.7049 47.2981 74.5641 47.3293C74.4197 47.3606 74.4021 47.2391 74.3563 47.1455C74.2225 46.8714 74.0464 46.9304 73.8421 47.0761C73.2575 47.4924 73.2892 48.1411 73.2047 48.7378C73.1554 49.0986 73.1448 49.4594 72.9688 49.7924C73.011 48.8072 73.1272 47.8324 73.4618 46.8957C73.5851 46.5488 73.7999 46.3615 74.1837 46.2886C76.0397 45.9278 77.8886 45.5358 79.741 45.1681C79.9488 45.1264 80.1671 45.1542 80.3819 45.1473C80.5334 45.2479 80.6777 45.3485 80.8221 45.4456Z" fill="#32ABED"/>
<path d="M29.5124 7.82357C29.3399 8.48965 29.3434 8.47924 28.7201 8.17049C28.4101 8.01784 28.1425 7.77847 27.7938 7.69868C27.4663 7.41768 27.0754 7.23729 26.688 7.06036C26.3359 6.90078 26.2513 6.69957 26.4063 6.35266C26.4979 6.14451 26.5401 5.91555 26.6035 5.69699C26.6317 5.67271 26.6563 5.64495 26.6599 5.61026C26.7303 4.83664 26.9029 4.72563 27.5931 5.10724C28.1531 5.41252 28.6848 5.76637 29.2342 6.09247C29.5723 6.29368 29.7625 6.63019 29.6146 7.04302C29.523 7.3032 29.6251 7.57379 29.5124 7.82357Z" fill="#0B88DA"/>
<path d="M69.1852 9.69586C69.1253 9.39058 69.0232 9.26222 68.6745 9.44955C67.949 9.84156 67.2024 10.2093 66.4453 10.5319C66.1952 10.6395 66.2692 10.8441 66.16 10.9829C65.9628 10.6499 66.1072 10.2891 66.0685 9.94217C66.0368 9.65423 66.1142 9.35935 66.0192 9.07488C66.0192 8.93959 66.0191 8.80082 66.0156 8.66553C66.079 8.56145 66.1213 8.42963 66.2481 8.388C67.0475 8.12781 67.7377 7.63519 68.5266 7.35419C69.0337 7.1738 69.0549 7.19461 69.0689 7.72539C69.0725 7.89538 69.0091 8.07577 69.1218 8.23535C69.1288 8.72103 69.2591 9.20671 69.1852 9.69586Z" fill="#F9CC02"/>
<path d="M76.1971 9.19299C75.2885 9.09585 74.5595 8.60671 73.8164 8.14878C74.401 7.68392 75.056 7.33353 75.7287 7.0109C76.0562 6.85479 76.3555 6.6744 76.5246 6.33789C77.4261 6.82357 78.3383 7.28843 79.3243 7.59372C79.2539 7.69085 79.1412 7.72901 79.0426 7.69779C78.5143 7.53821 78.1199 7.79146 77.7149 8.06899C77.2606 8.37774 76.7676 8.63446 76.271 8.86342C75.9928 8.99178 76.2851 9.10279 76.1971 9.19299Z" fill="#FEEC67"/>
<path d="M41.9365 9.09224C42.7112 9.28651 42.7112 9.28651 42.7112 8.44351C42.7112 8.2874 42.7077 8.12782 42.7112 7.97171C42.7465 7.09402 42.8732 6.18163 41.8555 5.68555C42.2781 5.78962 42.5492 6.14 42.919 6.33428C43.4684 6.90321 43.6339 7.5797 43.5987 8.35678C43.5564 9.30039 43.6093 10.2509 43.5987 11.1945C43.5917 12.0271 43.1761 12.6481 42.5035 13.1234C42.4084 12.9673 42.5105 12.8458 42.5985 12.7522C42.912 12.4053 42.8521 12.0584 42.6514 11.6906C42.507 11.4304 42.3732 11.1598 42.3415 10.8615C42.3133 10.6013 42.0844 10.5007 41.9435 10.3307C41.9611 10.2995 41.9717 10.2648 41.9928 10.244C42.6091 9.63343 42.6091 9.63343 41.9365 9.09224Z" fill="#D95C32"/>
<path d="M71.3359 6.35156C71.5825 6.40013 71.7726 6.39319 71.9593 6.14688C72.234 5.78262 72.6354 5.54325 73.0228 5.30041C73.3785 5.07839 73.7272 4.83208 73.854 4.39844C74.2766 4.65862 74.6675 4.95697 75.0161 5.30735C75.2767 5.53285 75.3648 5.75834 75.002 5.96649C74.2942 6.37238 73.5616 6.74357 72.9454 7.28823C72.8644 7.36108 72.7446 7.35414 72.646 7.2917C72.1424 7.07314 71.7515 6.69501 71.3359 6.35156Z" fill="#EFB303"/>
<path d="M29.5132 7.82237C29.5132 7.64544 29.4674 7.46158 29.5167 7.29853C29.7104 6.62205 29.3758 6.2682 28.7983 5.99413C28.3404 5.77558 27.9284 5.46336 27.4811 5.22398C26.8719 4.90135 26.8402 4.92564 26.7028 5.58131C26.6923 5.6264 26.6395 5.6611 26.6042 5.69926C26.6078 4.98808 26.724 4.26303 26.4141 3.54492C27.4706 4.14508 28.6503 4.48853 29.4885 5.3905C29.7421 6.19881 29.8266 7.00712 29.5132 7.82237Z" fill="#3991DA"/>
<path d="M79.7422 18.7017C79.8654 17.9663 80.3092 17.3592 80.5698 16.6757C80.7952 16.0894 81.0699 15.5205 81.3375 14.9516C81.4185 14.7816 81.4678 14.6289 81.3516 14.4624C81.422 14.3271 81.5488 14.3653 81.665 14.3618C82.4856 14.4 82.5102 14.4104 82.1862 15.1458C81.7566 16.1207 81.2706 17.0747 80.841 18.0495C80.6226 18.5456 80.3127 18.8162 79.7422 18.7017Z" fill="#FEB44E"/>
<path d="M66.2139 12.3466C66.2174 12.5305 66.2244 12.7143 66.228 12.8982C66.2033 14.3379 66.1434 15.7741 65.7525 17.1722C65.668 17.4705 65.7455 17.6266 66.0378 17.5052C66.7597 17.1999 67.4606 16.8565 68.1614 16.5061C68.2917 16.4402 68.3762 16.2806 68.4818 16.1627C68.3515 16.9571 67.7986 17.4913 67.2845 18.0464C66.8971 18.2303 66.5097 18.4176 66.1188 18.6015C65.83 18.6778 65.6117 18.8825 65.3405 19.0004C65.1503 19.0837 65.0095 19.1045 64.9425 18.8686C64.9109 18.6188 65.0341 18.4176 65.1538 18.2129C65.2172 18.1366 65.2982 18.0742 65.344 17.984C65.5131 17.533 65.6574 17.075 65.6962 16.5928C66.0307 15.4099 66.0448 14.1922 66.0906 12.978C66.0977 12.7698 66.1012 12.5617 66.1047 12.3501C66.1399 12.3154 66.1751 12.3119 66.2139 12.3466Z" fill="#D78C30"/>
<path d="M69.1184 8.23637C68.8895 7.98312 69.0867 7.65355 68.9459 7.35174C67.9211 7.68478 67.0125 8.28494 66.0088 8.67001C65.7834 7.85129 65.8679 7.25807 66.8962 7.02217C67.347 6.9181 67.7767 6.58506 68.2204 6.36304C68.5902 6.17917 68.8895 6.18264 69.0057 6.65444C69.0445 7.17828 69.1924 7.69865 69.1184 8.23637Z" fill="#FEE646"/>
<path d="M53.5508 4.12154C54.2023 4.3054 54.7517 3.95155 55.3328 3.7885C55.7589 3.67055 56.1674 3.49709 56.583 3.35486C56.8576 3.26119 56.8964 3.16406 56.6921 2.91775C56.3047 2.45635 55.7941 2.08516 55.5898 1.48846C55.8962 1.99149 56.3047 1.90129 56.759 1.71049C57.1006 1.56478 57.4669 1.47459 57.8191 1.3497C58.0374 1.27338 58.1501 1.29072 58.1395 1.56478C58.1008 2.53267 57.6395 3.16059 56.7062 3.47975C55.8821 3.76075 55.0545 4.03134 54.2305 4.31581C53.9487 4.40948 53.7093 4.41988 53.5508 4.12154Z" fill="#3490DF"/>
<path d="M76.197 9.19361C76.0033 9.07219 75.8519 8.96118 76.1618 8.78425C76.8556 8.39224 77.5775 8.03839 78.2326 7.57699C78.5882 7.32722 78.958 7.67066 79.3243 7.59087C79.5708 7.60475 79.8173 7.61862 80.2399 7.64638C79.1658 8.21532 78.229 8.7114 77.2887 9.20749C76.926 9.25259 76.5598 9.27687 76.197 9.19361Z" fill="#FCD320"/>
<path d="M72.6445 7.29489C73.0037 7.25673 73.1411 6.9237 73.4052 6.75024C73.863 6.44842 74.342 6.18824 74.8315 5.93846C75.1308 5.78582 75.24 5.60195 75.0181 5.31055C75.4126 5.45972 75.6767 5.77194 75.9831 6.03213C76.1838 6.33394 75.969 6.51434 75.7507 6.62188C74.9688 7.00002 74.2293 7.4406 73.5179 7.93322C73.1974 7.75629 72.8875 7.56896 72.6445 7.29489Z" fill="#FCD406"/>
<path d="M73.5195 7.93082C73.9809 7.24046 74.7697 7.01844 75.4494 6.64724C75.7135 6.50154 76.0164 6.41828 75.9882 6.0332C76.1678 6.13381 76.3474 6.23788 76.5306 6.33849C76.6116 6.48072 76.601 6.63683 76.4672 6.71315C75.6044 7.21965 74.7416 7.73308 73.8259 8.14938C73.7167 8.07652 73.6181 8.00367 73.5195 7.93082Z" fill="#FEE339"/>
<path d="M1.58582 75.2637C1.31817 76.5542 0.860346 77.7857 0.296875 78.9757C0.624393 77.7025 1.06813 76.4709 1.58582 75.2637Z" fill="#4E9EF0"/>
<path d="M66.2144 12.3461L66.1616 12.3565H66.1088C66.0701 11.5863 66.0348 10.8162 65.9961 10.046C66.0031 9.72338 66.0067 9.40076 66.0137 9.07812C66.2356 9.70257 66.0313 10.3548 66.1546 10.9862C66.1757 11.4371 66.1933 11.8916 66.2144 12.3461Z" fill="#FEE646"/>
<path d="M3.09073 73.9108C2.25961 73.8518 2.25609 73.8483 1.92857 74.6636C1.87575 74.7989 1.84053 74.9272 1.66797 74.9481C1.75601 74.6428 1.84053 74.334 1.92857 74.0287C2.25961 73.609 2.49205 73.5847 3.09073 73.9108Z" fill="#4E9EF0"/>
<path d="M80.4867 27.584C80.2683 28.0523 80.0711 28.5345 79.6133 28.8433C79.8704 28.3992 80.0781 27.924 80.4867 27.584Z" fill="#D87D64"/>
<path d="M4.92965 65.6562C4.87682 66.1107 4.70426 66.5235 4.5 66.9294C4.52465 66.468 4.6303 66.0309 4.92965 65.6562Z" fill="#EAE8EA"/>
<path d="M11.6758 78.9722C11.9751 78.7918 12.2991 78.6912 12.6513 78.6738C12.366 78.9028 12.0385 78.9965 11.6758 78.9722Z" fill="#EAE8EA"/>
<path d="M76.2031 9.19336C76.5659 9.19683 76.9286 9.20377 77.2913 9.20724C76.9251 9.35641 76.5623 9.36335 76.2031 9.19336Z" fill="#FEEC67"/>
<path d="M15.2422 36.8114C15.6718 35.6423 16.0944 34.4732 16.5311 33.3076C17.1333 31.6944 17.7391 30.0847 18.3483 28.4751C18.4223 28.2808 18.4645 28.0588 18.7251 28.0102C18.947 27.9998 19.0703 28.1836 19.2428 28.2704C20.0317 28.8983 20.7149 29.6407 21.4932 30.2755C22.2433 30.9243 22.8667 31.7014 23.6767 32.2876C27.2441 35.788 31.044 39.0351 34.8193 42.3134C35.249 42.7748 35.7596 43.1426 36.2385 43.5519C36.2808 43.5762 36.3195 43.6074 36.3548 43.6352C36.5837 43.8399 36.7809 44.0758 37.0521 44.2319C37.1119 44.2735 37.1683 44.3186 37.2246 44.3672C37.8691 45.0124 38.5875 45.5744 39.2637 46.185C39.4433 46.3446 39.6652 46.4764 39.718 46.7401C38.2987 47.4686 37.2528 48.6307 36.1611 49.7339C35.8864 50.0115 35.5518 50.1502 35.2137 50.2994C35.0447 50.3722 34.8827 50.4347 34.8087 50.6081C34.358 51.6211 34.2277 51.7079 33.1535 51.7009C33.0831 51.7009 33.0127 51.7079 32.9387 51.7113C32.9141 51.7044 32.8929 51.6975 32.8683 51.6905C32.5196 51.4373 32.2238 51.1146 31.8188 50.9377C30.9137 50.3237 30.1354 49.557 29.2621 48.9048C27.5822 47.4547 25.8672 46.0462 24.2155 44.5649C22.7892 43.2848 21.3136 42.0602 19.8979 40.7697C18.3835 39.3994 16.8833 38.0256 15.2422 36.8114Z" fill="#EDE8E2"/>
<path d="M9.43068 58.5734C8.96582 58.0357 8.38826 57.6679 7.72266 57.4251C7.94452 56.4294 8.37417 55.4997 8.70873 54.5422C9.31798 52.8007 9.97302 51.0766 10.6104 49.342C10.695 49.1096 10.7478 48.8563 11.0683 48.832C11.7585 48.9361 12.2727 49.3802 12.8221 49.7409C13.0263 49.8762 13.22 50.0324 13.4384 50.1468C16.3191 52.3046 19.1365 54.5422 22.0313 56.6862C22.306 56.9672 22.6265 57.1961 22.9505 57.4112C22.9927 57.4355 23.035 57.4667 23.0737 57.4979C24.8628 58.8058 26.6447 60.1206 28.4866 61.3591C29.772 62.2749 31.1032 63.1353 32.4274 63.9956C32.614 64.1171 32.857 64.2003 32.8817 64.4744C32.3781 64.405 31.9872 64.0858 31.5434 63.8846C31.156 63.7077 30.8074 63.6522 30.4587 63.9297C30.332 64.0303 30.177 64.1864 30.0432 64.1275C29.5677 63.9263 29.441 64.2766 29.2966 64.5611C29.1768 64.797 29.0254 64.9635 28.7613 65.0017C28.5535 65.0329 28.476 65.1856 28.3739 65.3313C28.1485 65.647 27.8914 65.9245 27.5005 66.0667C26.7997 66.3234 26.1482 66.6495 25.7819 67.3503C25.6974 67.5133 25.5248 67.6035 25.3276 67.496C24.9367 67.2844 24.743 67.4821 24.5986 67.8186C24.4472 68.169 24.1901 68.3251 23.7992 68.2002C23.3167 68.2627 23.0315 67.8846 22.6793 67.6833C22.0947 67.3503 21.5136 67.0103 20.9642 66.6148C19.6999 65.8065 18.4286 65.0121 17.2207 64.1275C17.0199 63.9818 16.8262 63.8326 16.5903 63.7424C15.5866 63.0104 14.5759 62.2958 13.5581 61.5846C12.2797 60.6896 11.0295 59.7564 9.70889 58.9168C9.57155 58.8405 9.39898 58.7815 9.43068 58.5734Z" fill="#EAE8E8"/>
<path d="M32.8726 64.4773C31.4992 63.5545 30.1257 62.6317 28.7522 61.7055C28.636 61.6292 28.5339 61.532 28.4247 61.4453C28.224 61.2406 27.9775 61.0984 27.7345 60.9527C27.421 60.7653 27.4774 60.5711 27.6957 60.3629C27.8507 60.2172 28.0479 60.127 28.2381 60.0264C29.6961 59.2597 31.1399 58.4653 32.4465 57.4558C32.7599 57.2129 33.1191 57.043 33.4854 56.9181C34.1897 56.6787 34.8131 56.3075 35.3906 55.8635C35.7569 55.5825 36.1584 55.4298 36.5915 55.3188C36.9613 55.2217 37.2959 55.2702 37.5706 55.5651C37.7537 55.7629 37.9967 55.8773 38.215 56.0265C39.3913 56.8973 40.5816 57.7541 41.7438 58.6492C42.3002 59.0793 42.8531 59.506 43.4659 59.8564C43.7547 60.2519 43.6455 60.5399 43.2792 60.8451C42.7369 61.2961 42.0854 61.5702 41.4691 61.8547C40.4196 62.3403 39.4547 62.9682 38.37 63.4019C37.7396 63.6551 37.0634 64.0333 36.581 64.5918C36.4154 64.7861 36.183 64.8 35.9541 64.8416C35.4505 64.9318 35.3942 65.1226 35.7393 65.5077C35.8802 65.6638 36.0633 65.7921 36.1584 65.9864C36.2147 66.0939 36.3204 66.2535 36.0668 66.2847C35.13 65.8476 34.2672 65.2787 33.3868 64.7479C33.2177 64.6542 33.0452 64.5675 32.8726 64.4773Z" fill="#019EFA"/>
<path d="M38.2126 56.0303C37.9732 56.0372 37.8217 55.8637 37.6562 55.7458C37.0892 55.3399 36.2933 55.2983 35.7686 55.7527C34.9551 56.457 33.9866 56.8871 33.0111 57.2861C32.4476 57.515 32.1307 58.0319 31.5848 58.2852C30.3945 58.8333 29.4119 59.7492 28.1617 60.2036C28.049 60.2453 27.9504 60.332 27.8483 60.4014C27.5912 60.5748 27.4926 60.7309 27.8412 60.9391C28.0596 61.0709 28.3378 61.1611 28.4258 61.4491C27.2531 60.7795 26.2142 59.9226 25.1119 59.156C24.3724 58.6425 23.6187 58.143 22.9531 57.5324C23.0834 57.4526 23.3687 57.5116 23.2454 57.1994C23.2067 57.1057 23.263 56.9808 23.344 56.9079C24.0519 56.2904 24.4604 55.4162 25.2176 54.8369C25.5944 54.5455 25.8656 54.1465 26.1579 53.7649C26.7812 52.9531 27.5736 52.2801 28.2075 51.4822C28.6231 50.9618 29.1795 50.5941 29.588 50.0737C29.8099 49.7927 29.7887 49.5811 29.5528 49.3348C29.419 49.1961 29.19 49.0781 29.3027 48.8145C30.1515 49.4979 31.0002 50.1813 31.8489 50.8647C32.2363 51.118 32.5885 51.4128 32.9336 51.7147H32.9266C34.0289 52.7589 35.2685 53.6435 36.4447 54.6044C37.0329 55.0797 37.6773 55.4891 38.2126 56.0303Z" fill="#1C9FF9"/>
<path d="M34.7464 42.4061C32.8552 40.8727 31.0697 39.2249 29.2419 37.6187C27.386 35.9882 25.5723 34.316 23.7974 32.5988C23.7234 32.526 23.66 32.4392 23.5931 32.3594C23.5297 32.2311 23.4347 32.134 23.3184 32.0472C22.8184 31.676 22.8148 31.6379 23.2269 31.2146C23.7094 30.722 24.2411 30.2849 24.7729 29.8478C25.0124 29.6535 25.2378 29.7229 25.4596 29.8686C25.9808 30.212 26.407 30.6526 26.8296 31.1106C28.0058 32.3803 29.3335 33.4973 30.5661 34.7115C30.6013 34.7462 30.6612 34.7566 30.7105 34.7809C31.693 35.5649 32.5347 36.4877 33.4081 37.3828C33.5419 37.5215 33.6546 37.6811 33.8237 37.7817C34.2146 38.1286 34.5879 38.4894 34.9365 38.878C36.0071 40.0297 37.1341 41.1225 38.261 42.2222C39.1485 43.1103 40.0465 43.988 40.9445 44.8657C41.5432 45.4346 42.0785 46.066 42.7441 46.5656C43.5295 47.2767 44.2549 48.0469 45.0227 48.7789C45.6178 49.3443 46.1531 49.9757 46.8187 50.4753C47.3153 50.9055 47.759 51.3877 48.2345 51.8386C48.4317 52.0433 48.6218 52.2515 48.8754 52.3937C49.4917 52.9418 50.1362 53.4553 50.7032 54.0554C50.9004 54.2601 51.0905 54.4683 51.3441 54.6105C51.6681 54.9054 52.0449 55.1378 52.3478 55.457C54.3516 57.1881 56.3907 58.8741 58.553 60.4144C58.8031 60.6884 59.1517 60.8515 59.3841 61.1394C59.5109 61.299 59.761 61.469 59.4687 61.7014C59.2292 61.743 59.1165 61.5106 58.9228 61.4586C58.7221 61.2712 58.5284 61.0804 58.2431 61.0215C58.1445 60.9555 58.0459 60.8931 57.9438 60.8272C57.7289 60.5843 57.486 60.3831 57.169 60.2825C56.8415 59.9321 56.3308 59.8281 56.0104 59.4638C55.8589 59.2383 55.6194 59.1238 55.3905 58.9955C55.3095 58.9434 55.2285 58.8879 55.1475 58.8359C54.6615 58.371 54.0981 58.0068 53.5416 57.6321H53.5452C52.3865 56.3312 50.9955 55.2731 49.7136 54.1005C47.5829 52.1474 45.4805 50.1631 43.3076 48.2516C41.7228 46.857 40.131 45.4693 38.5674 44.0504C38.1871 43.7035 37.7961 43.367 37.4052 43.034C36.8453 42.5587 36.641 42.6003 36.2501 43.197C36.2008 43.2734 36.1409 43.3358 36.0599 43.3774C35.5493 43.1554 35.2183 42.6871 34.7464 42.4061Z" fill="#008FF3"/>
<path d="M21.0171 66.542C21.9328 67.111 22.8238 67.7181 23.7887 68.2107C24.7255 68.8351 25.7292 69.3555 26.7152 69.8967C27.0921 70.2193 27.1026 70.3789 26.7505 70.6807C26.6307 70.7848 26.5004 70.8854 26.356 70.9478C25.0495 71.5029 24 72.4396 22.8343 73.2062C22.1723 73.6399 21.6299 74.247 20.8692 74.5384C20.6861 74.6078 20.5347 74.7604 20.5734 74.9894C20.6192 75.2426 20.8446 75.2149 21.0312 75.2669C21.5489 75.4126 22.056 75.2981 22.5667 75.2322C22.7357 75.2079 22.9576 75.083 23.0632 75.3571C22.8308 75.5375 22.5808 75.6589 22.2744 75.6173C21.8307 75.6589 21.3869 75.6832 20.9432 75.6069C19.7881 75.4369 18.7104 75.0136 17.661 74.5349C16.1889 73.8619 14.745 73.1264 13.3962 72.2314C13.1814 72.0233 13.1778 71.8255 13.5124 71.8255C14.266 71.829 14.7274 71.3745 15.2627 70.9444C16.4002 70.0389 17.3194 68.8976 18.5625 68.0962C19.1225 67.7354 19.6155 67.2567 20.1438 66.8369C20.3973 66.6322 20.6579 66.4449 21.0171 66.542Z" fill="#019CFB"/>
<path d="M36.0622 66.2912C36.2242 65.9581 35.865 65.9061 35.7452 65.7292C35.5868 65.4933 35.1888 65.3614 35.3438 64.9972C35.4705 64.6988 35.7981 64.6954 36.0904 64.7058C36.2418 64.7092 36.3686 64.6641 36.4742 64.5531C36.9215 64.0848 38.2492 63.2765 38.8091 63.103C38.9922 63.0475 39.1507 62.9192 39.3233 62.829C40.2601 62.3363 41.2144 61.8715 42.123 61.3268C42.4189 61.1499 42.7569 61.0701 43.0563 60.855C43.4507 60.5775 43.5845 60.293 43.4578 59.8594C45.2926 61.0875 47.1415 62.2947 49.0467 63.4083C49.3531 63.8177 49.3038 64.2097 48.8777 64.5288C48.5607 64.7682 48.1909 64.8966 47.793 64.9382C47.5781 64.959 47.3739 64.9972 47.1908 65.1221C46.7963 65.3961 46.4935 65.7743 45.9159 65.809C45.6271 65.8263 45.4088 66.2599 45.0848 66.4265C44.7502 66.5964 44.4297 66.7768 44.0564 66.8462C43.8628 66.8844 43.6655 66.9468 43.5317 67.0891C43.2394 67.4013 42.8767 67.5574 42.4576 67.6164C42.197 67.6545 41.9681 67.7829 41.8554 68.0119C41.6194 68.4941 41.2637 68.553 40.8059 68.3761C40.7249 68.3449 40.6298 68.3553 40.5524 68.3033C38.9465 67.8766 37.499 67.0891 36.0622 66.2912Z" fill="#0EB5FE"/>
<path d="M41.9424 10.3345C42.2805 10.2894 42.4249 10.4872 42.4742 10.7751C42.5059 10.9624 42.4954 11.1637 42.6151 11.3267C43.08 11.9581 43.0729 12.5583 42.5024 13.1272C41.6149 14.0708 40.5091 14.7265 39.3963 15.3544C36.7303 16.8635 33.9623 18.1887 31.3351 19.7637C30.997 19.9545 30.666 20.1591 30.3631 20.3985C30.3244 20.4332 30.2856 20.4679 30.2469 20.5026C29.9335 20.6448 29.8102 20.4124 29.7362 20.2077C29.5566 19.6943 29.4439 19.16 29.208 18.6605C29.0883 18.4107 29.2326 18.2025 29.4087 17.9979C29.7503 17.6093 30.2117 17.3595 30.5603 16.9849C31.6485 16.1106 32.8987 15.4966 34.1137 14.8305C36.4416 13.5539 38.8293 12.3917 41.0796 10.9798C41.3895 10.7925 41.6889 10.5947 41.9424 10.3345Z" fill="#DB4D0B"/>
<path d="M13.3939 50.2468C12.598 49.8097 11.8971 49.2165 11.0625 48.8349C12.3867 45.1923 13.7108 41.5532 15.0209 37.9071C15.1441 37.5602 15.44 37.2306 15.2392 36.8143C15.3942 36.7623 15.5245 36.8351 15.6372 36.9219C17.1269 38.1256 18.5848 39.3676 19.9653 40.6963C19.7083 40.8593 19.5639 40.6512 19.4195 40.5159C19.1096 40.221 18.7574 39.9782 18.444 39.6902C18.1939 39.4613 17.9791 39.4821 17.8946 39.8221C17.6093 40.9634 17.0071 41.9833 16.4401 42.979C15.9048 43.9191 15.5491 44.9252 15.0315 45.8653C14.5736 46.6909 14.2602 47.5929 13.7848 48.4151C13.4608 48.9702 13.4396 49.6154 13.3939 50.2468Z" fill="#2194F2"/>
<path d="M23.0648 75.3569C22.783 75.1973 22.4872 75.35 22.2477 75.4193C21.7124 75.5755 21.2229 75.3812 20.7123 75.3777C20.5115 75.3777 20.4411 75.2181 20.4059 75.0655C20.3636 74.892 20.3495 74.7047 20.5291 74.5868C20.7228 74.4619 20.9165 74.3231 21.1278 74.2468C21.3532 74.1635 21.5539 74.049 21.7195 73.8999C22.5048 73.1887 23.4662 72.7065 24.2621 72.0196C24.9594 71.416 25.8399 71.1488 26.5935 70.6493C26.9527 70.4099 27.002 70.2018 26.7203 69.8965C27.1816 69.9936 27.562 70.2607 27.981 70.4515C29.4707 71.1384 30.985 71.7455 32.6438 72.082C32.3937 72.1653 32.1437 72.2486 31.8901 72.3318C31.6366 72.4151 31.383 72.5053 31.1294 72.5885C28.6924 73.3864 26.2554 74.1913 23.8149 74.9788C23.5331 75.0655 23.3218 75.2494 23.0648 75.3569Z" fill="#17B5FE"/>
<path d="M58.492 60.4812C57.115 59.5827 55.8472 58.5385 54.5723 57.5082C53.9138 56.9774 53.2693 56.4258 52.6213 55.8846C52.4875 55.7701 52.3361 55.6695 52.2656 55.4996C52.3044 55.2567 52.4628 55.3573 52.5755 55.4128C52.7657 55.503 52.9488 55.6175 53.1355 55.7146C53.7518 56.0338 54.5829 55.7736 54.9139 55.1596C54.9492 55.0971 54.8858 55.1561 54.9351 55.1145C55.4739 54.6565 55.6852 54.1084 55.4352 53.425C55.8085 53.3417 55.9071 53.6817 56.062 53.8691C57.1115 55.1561 58.1609 56.4432 59.1259 57.7961C59.6894 58.5871 60.2176 59.4023 60.7318 60.2245C60.8234 60.3737 60.9114 60.62 61.1685 60.391C61.5805 60.8837 61.6932 61.4248 61.5101 62.0493C61.4009 62.4205 61.2037 62.5419 60.848 62.4344C60.1155 62.2123 59.4182 61.9105 58.8195 61.4248C58.8442 61.3867 58.8759 61.3797 58.9146 61.4006C59.0977 61.4838 59.2773 61.5671 59.4605 61.6503C59.7739 61.6746 60.0275 61.8516 60.3057 61.9591C60.5275 62.0458 60.7564 62.1881 61.1157 61.966C60.0768 61.633 59.2703 61.0779 58.492 60.4812Z" fill="#5FAAF6"/>
<path d="M40.5547 68.3077C40.6075 68.3042 40.6709 68.2834 40.7132 68.3008C41.2661 68.5263 41.5901 68.2591 41.8331 67.8047C41.8753 67.7284 41.9422 67.6104 41.9986 67.6104C42.8649 67.5931 43.4073 66.868 44.1891 66.6529C44.7772 66.4933 45.3583 66.254 45.6999 65.692C45.7492 65.6122 45.8267 65.5255 45.9077 65.5601C46.3549 65.7509 46.5486 65.4665 46.8268 65.1924C47.0804 64.9461 47.429 64.8004 47.8587 64.7796C48.8448 64.731 49.2779 64.1725 49.049 63.4023C50.0245 63.7909 50.905 64.3806 51.9157 64.6894C52.37 64.8282 52.8208 64.9669 53.2786 65.1057C53.2187 65.2826 53.0849 65.2896 52.9757 65.3277C50.1583 66.2748 47.3199 67.1768 44.5272 68.1967C43.7172 68.4916 42.967 68.8454 42.0866 68.6997C41.5619 68.6199 41.0231 68.5956 40.5547 68.3077Z" fill="#21B8FE"/>
<path d="M45.6562 42.0676C46.0928 41.235 46.3499 40.3157 46.8993 39.5352C47.1106 39.157 47.3642 39.1501 47.7199 39.386C48.5862 39.9653 49.4737 40.51 50.3471 41.072C50.5231 41.1865 50.7168 41.301 50.6746 41.5611C50.4421 41.7936 50.3647 42.1023 50.2273 42.3833C49.8787 43.1916 49.5265 43.9965 49.1814 44.8083C49.0757 45.0546 48.9349 45.2731 48.7236 45.4431C48.5827 45.731 48.3819 45.6235 48.1953 45.5125C47.2585 44.947 46.3077 44.4058 45.385 43.823C45.1772 43.6912 45.0539 43.5108 45.0821 43.2541C45.2265 42.8378 45.3286 42.4007 45.6562 42.0676Z" fill="#DD4B0E"/>
<path d="M40.8822 44.9354C39.9489 44.0924 39.0509 43.2112 38.1951 42.2884C38.2198 42.2052 38.2691 42.1532 38.3571 42.1427C38.8537 42.3717 39.1953 42.7845 39.5792 43.1488C39.7482 43.3084 39.9032 43.4784 40.118 43.5755C40.4525 43.7281 40.7308 43.6588 40.8646 43.3118C41.0794 42.7602 41.4034 42.2815 41.8014 41.8444C41.9457 41.6848 42.0408 41.4871 42.0373 41.2651C42.0303 40.7863 42.0655 40.3145 42.2733 39.8705C42.3543 39.6935 42.305 39.5131 42.1747 39.3778C41.4316 38.5938 40.773 37.73 39.8996 37.0709C38.7797 36.0128 37.6739 34.9408 36.5505 33.8862C35.7616 33.1473 34.9693 32.4118 34.1663 31.6868C33.1908 30.8646 32.2716 29.9834 31.3102 29.1439C29.7853 27.8187 28.2499 26.5073 26.644 25.2793C26.5313 25.1925 26.4256 25.0989 26.32 25.0052C25.3233 24.2455 24.3267 23.4892 23.1962 22.9272C22.4743 22.5664 22.4496 22.5768 21.9214 23.0521C21.7101 22.9203 21.622 22.7086 21.5762 22.4866C21.4741 22.0079 21.7418 21.7581 22.2313 21.8483C22.6222 21.9211 22.9603 22.1085 23.3054 22.2819C24.6331 22.9862 25.8093 23.9055 26.9785 24.8283C31.6096 28.4917 35.9272 32.502 40.1532 36.606C41.9457 38.3475 43.7136 40.1133 45.4111 41.945C45.5167 42.063 45.6717 42.1809 45.4463 42.3301C45.1963 42.3578 45.0624 42.174 44.9145 42.0317C44.6328 41.7646 44.337 41.5079 44.0024 41.3102C43.5587 41.0465 43.1924 41.22 43.1995 41.7299C43.21 42.4723 42.8543 42.9788 42.3085 43.4124C42.1113 43.5686 41.981 43.7871 41.8683 44.0022C41.6323 44.4254 41.3154 44.7342 40.8822 44.9354Z" fill="#3795F1"/>
<path d="M59.3849 34.4734C58.4411 35.0354 57.3916 35.3337 56.3562 35.6633C56.0886 35.7465 55.916 35.6563 55.8139 35.3892C55.2504 33.9426 54.6799 32.4994 54.1023 31.0563C53.9579 30.6989 54.1622 30.5775 54.4404 30.4804C55.2152 30.2063 55.9864 29.9323 56.7612 29.6582C57.3317 30.071 57.3388 30.7614 57.6135 31.3199C57.9868 32.0727 58.2192 32.888 58.5995 33.6373C58.7827 34.0016 59.0644 34.2513 59.3849 34.4734Z" fill="#028BE5"/>
<path d="M62.1406 51.0248C62.4717 50.3727 62.8097 49.7968 62.926 49.1307C63.1302 47.9581 63.0739 46.8202 62.5104 45.7448C62.3308 45.4083 62.3378 45.2418 62.7886 45.2314C63.3943 45.2175 64.0001 45.1689 64.6023 45.1169C64.8735 45.0926 65.0284 45.1898 65.1411 45.4326C65.9476 47.1672 65.9264 48.8636 64.9192 50.5184C64.8277 50.6675 64.7396 50.8271 64.5283 50.841C63.7571 50.9 62.9858 50.9624 62.1406 51.0248Z" fill="#D88B24"/>
<path d="M59.385 34.4724C59.1385 34.4863 58.9518 34.4134 58.8004 34.1949C58.406 33.6294 58.2334 32.9599 57.9165 32.3701C57.5044 31.5965 57.3917 30.7153 56.8987 29.9903C56.8282 29.8827 56.7649 29.7856 56.7578 29.6573C57.1875 29.4491 57.6171 29.2375 58.0468 29.0293C58.2228 30.3684 58.8568 31.5514 59.3639 32.7795C59.5259 33.1715 59.864 33.3033 60.283 33.2582C60.3183 33.2548 60.3535 33.2548 60.3887 33.2478C61.6565 33.109 61.8748 32.776 61.4663 31.5861C61.1071 30.535 60.6423 29.5254 60.2408 28.4916C60.1774 28.3286 60.0823 28.1759 60.0788 27.9921C60.6634 27.7007 61.2586 27.4439 61.9171 27.3711C61.7023 27.7007 61.7551 28.0094 61.903 28.3702C62.3714 29.522 62.8292 30.6807 63.3399 31.8151C63.4596 32.0822 63.611 32.2938 63.8505 32.4534C62.2552 32.8905 60.8148 33.6745 59.385 34.4724Z" fill="#0386E5"/>
<path d="M60.0791 27.9961C60.639 28.7038 60.7729 29.5988 61.1602 30.3863C61.4138 30.9032 61.5793 31.4687 61.7554 32.0203C61.9808 32.7419 61.8223 33.0125 61.0863 33.2345C61.0511 33.2449 61.0194 33.2622 60.9877 33.2727C59.7727 33.6022 59.3642 33.3906 58.9275 32.2215C58.6281 31.4132 58.3253 30.6084 58.0048 29.8105C57.8921 29.5329 57.8604 29.2831 58.0506 29.0334C58.6951 28.6309 59.3712 28.2806 60.0791 27.9961Z" fill="#045FE6"/>
<path d="M39.7068 46.7432C38.837 45.9696 37.9636 45.1959 37.0938 44.4189C37.4142 44.3703 37.7206 44.3772 37.9918 44.0824C38.1784 43.8777 38.4919 44.0997 38.7102 44.2593C39.2737 44.6652 39.8125 45.1023 40.3267 45.5602C42.5806 47.5619 44.8626 49.5358 47.0355 51.6243C47.1869 51.77 47.356 51.9087 47.4581 52.0995C47.5145 52.2036 47.6131 52.3181 47.5145 52.436C47.4229 52.5505 47.2855 52.5158 47.1658 52.4777C47.0144 52.4291 46.8665 52.3632 46.7326 52.2695C47.0531 52.5193 47.3736 52.7656 47.687 53.0223C47.842 53.1472 48.0638 53.2547 47.9582 53.5253C46.6657 52.6407 45.5036 51.5965 44.3168 50.5835C42.8975 49.3763 41.4853 48.1586 40.0731 46.9444C39.9639 46.8577 39.8618 46.7571 39.7068 46.7432Z" fill="#1C9DF8"/>
<path d="M45.3933 42.2857C45.5694 42.1782 45.4003 42.0637 45.4003 41.9492C45.4848 41.9874 45.5694 42.0255 45.6539 42.0637C45.6011 42.5043 45.3158 42.8547 45.1644 43.2536C45.0975 43.3785 45.101 43.5311 45.0094 43.6491C44.9636 43.7254 44.9038 43.7913 44.858 43.8676C44.696 44.1174 44.2734 44.2666 44.3368 44.5511C44.3966 44.8113 44.8052 44.891 45.0622 45.0402C45.999 45.5849 46.9428 46.1087 47.8866 46.6395C47.8197 46.8754 47.612 46.865 47.4535 46.8234C46.5731 46.577 46.1399 47.1876 45.7067 47.7288C45.4461 48.0514 45.2489 48.433 45.1115 48.8355C45.0658 48.8806 45.0165 48.8805 44.9672 48.8424C44.1783 48.1382 43.4247 47.4027 42.7097 46.6221C42.1639 46.1677 42.1568 45.9804 42.5407 45.3767C42.9211 44.78 43.4423 44.2874 43.8332 43.6977C43.9423 43.5346 44.0445 43.382 44.0726 43.1773C44.2135 42.1712 44.4812 41.9943 45.3933 42.2857Z" fill="#519DF3"/>
<path d="M23.2976 22.29C22.9208 22.2622 22.6356 21.9743 22.2552 21.9431C22.0827 21.9292 21.9136 21.8182 21.7798 22.009C21.6601 22.179 21.6319 22.3698 21.7129 22.5536C21.7868 22.7236 21.8995 22.8797 21.9946 23.0428C22.2728 23.1538 22.3468 23.4313 22.4736 23.6499C23.1497 24.7878 23.9104 25.8632 24.7486 26.8866C26.5975 29.2352 28.5731 31.4763 30.5664 33.7104C32.0385 35.3617 33.507 37.0095 35.0319 38.6157C35.12 38.7129 35.2151 38.8031 35.2291 38.9418C35.0883 39.1812 34.9791 39.0182 34.8664 38.9106C34.4825 38.588 34.1128 38.248 33.7993 37.856C32.9471 36.9193 32.0314 36.0486 31.1299 35.1605C30.982 35.0148 30.8552 34.8344 30.6404 34.7685C30.4361 34.6575 30.2812 34.4979 30.172 34.2967C30.0206 33.9532 29.7283 33.7312 29.443 33.5057C29.3409 33.4329 29.2528 33.3461 29.1789 33.2455C27.7667 31.6636 26.3439 30.0955 24.9493 28.4963C23.6146 26.9629 22.3221 25.3949 21.2375 23.6742C21.079 23.4209 20.924 23.2128 20.5859 23.2509C20.843 22.1929 21.4276 21.6447 22.2059 21.78C22.6109 21.8494 23.0018 21.9847 23.2976 22.29Z" fill="#5FAFF7"/>
<path d="M31.4214 22.6152C32.5167 23.0246 33.6049 23.4548 34.7354 23.7739C35.0065 23.8502 35.1051 23.9925 35.1016 24.2631C35.0911 25.1408 35.0911 26.0185 35.1016 26.8961C35.1051 27.198 35.0277 27.3159 34.6966 27.2084C33.8866 26.9447 33.0626 26.7192 32.2948 26.3446C32.1293 26.2197 32.0694 26.0462 32.0342 25.8485C31.8617 24.8979 31.6151 23.9647 31.2454 23.0662C31.1045 22.7262 31.1221 22.7124 31.4214 22.6152Z" fill="#D8480E"/>
<path d="M53.5195 21.3694C52.6778 20.908 51.9699 20.3113 51.498 19.4683C50.9944 18.4553 50.9909 18.4518 51.9206 17.7927C52.2235 17.5776 52.544 17.3972 52.8046 17.1197C53.1567 16.7485 53.3575 17.078 53.5547 17.3313C54.0336 17.9176 54.5619 18.4622 55.1676 18.9236C55.5832 19.163 55.5585 19.4926 55.3085 19.8083C54.9986 20.2003 54.7732 20.6339 54.5056 21.0502C54.171 21.5775 54.1076 21.5983 53.5195 21.3694Z" fill="#0245E7"/>
<path d="M47.9592 53.5293C47.769 53.0956 47.3182 52.9395 46.9942 52.6516C46.797 52.4747 46.5928 52.3116 46.4625 52.0271C46.7794 52.1728 47.0999 52.3185 47.5366 52.5163C47.1422 51.6837 46.4977 51.2466 45.9589 50.7436C44.5044 49.3767 42.9901 48.0689 41.4969 46.7402C40.5848 45.9284 39.6762 45.1201 38.6901 44.395C38.2217 44.0516 38.0879 44.0308 37.7921 44.4852C37.6723 44.6691 37.5843 44.7038 37.4328 44.5407C37.3448 44.4471 37.2356 44.3881 37.0983 44.4193C37.0701 44.3916 37.0384 44.3673 37.0102 44.3395C36.7743 44.1036 36.563 43.84 36.2672 43.67C36.2002 43.559 35.9819 43.5416 36.0594 43.3439C36.563 42.3344 36.8342 42.317 37.7075 43.1045C39.3346 44.572 40.9933 46.0012 42.6379 47.4513C43.4056 48.1278 44.1804 48.8008 44.9341 49.4981C46.9203 51.3368 48.8713 53.217 50.8928 55.0175C51.6147 55.6628 52.3437 56.3081 53.0868 56.9325C53.291 57.106 53.3967 57.3939 53.5481 57.6298C52.71 57.1961 52.0056 56.5752 51.2485 56.0271C50.1321 55.2222 48.9875 54.4486 47.9592 53.5293Z" fill="#0796F7"/>
<path d="M63.8568 32.4574C63.5222 32.4817 63.4165 32.3291 63.2757 32.0134C62.7157 30.7437 62.2192 29.4497 61.6698 28.18C61.4902 27.7637 61.4972 27.5451 61.9233 27.3786L61.9304 27.3752C62.3178 27.396 62.677 27.1046 63.0785 27.278C63.5257 28.062 63.7617 28.9293 64.1068 29.7515C64.4097 30.4662 64.6667 31.1982 64.9555 31.9163C65.0647 32.1834 65.0647 32.3464 64.702 32.3568C64.4202 32.3638 64.142 32.4228 63.8568 32.4574Z" fill="#035FE5"/>
<path d="M61.1678 60.3846C61.1326 60.506 61.2523 60.7038 61.0516 60.7384C60.9001 60.7627 60.8227 60.5997 60.7487 60.4817C60.0725 59.4132 59.3858 58.3586 58.6322 57.3387C57.7236 56.1141 56.7727 54.9207 55.7937 53.7481C55.6916 53.6267 55.5859 53.5122 55.4803 53.3943C55.2725 53.3527 55.1457 53.1965 55.0224 53.0508C53.3954 51.1012 51.6627 49.2417 49.9618 47.3545C49.6307 46.9868 49.2574 46.6572 48.9123 46.3034C48.7397 46.1264 48.5601 45.946 48.6411 45.6616C48.6658 45.613 48.7045 45.5818 48.7573 45.5714C49.032 45.502 49.1377 45.731 49.275 45.8732C51.1239 47.8471 52.9622 49.8349 54.7337 51.8783C56.4839 53.8938 58.206 55.9337 59.7556 58.1054C60.2768 58.8339 60.7029 59.6249 61.1678 60.3846Z" fill="#2EA1F5"/>
<path d="M42.3846 25.2719C42.786 25.1471 43.1946 25.036 43.5855 24.8938C43.8672 24.7897 44.0433 24.814 44.1806 25.1124C44.5821 25.9901 44.9977 26.8643 45.4273 27.7281C45.5682 28.0126 45.547 28.1791 45.216 28.2762C44.8638 28.3803 44.5187 28.5156 44.1454 28.5537C43.9095 28.6474 43.7545 28.5607 43.6101 28.3595C43.022 27.5477 42.6135 26.6318 42.0887 25.7888C41.8845 25.4627 42.0535 25.3136 42.3846 25.2719Z" fill="#F3BD03"/>
<path d="M20.5856 23.25C20.8709 22.9309 21.0223 23.0627 21.209 23.3784C22.1493 24.9742 23.329 26.4035 24.5335 27.805C26.0936 29.6228 27.703 31.4025 29.2877 33.196C29.161 33.2966 29.0412 33.2481 28.9532 33.1579C28.1643 32.3496 27.2452 31.6592 26.6183 30.7017C26.3049 30.1154 25.7625 29.7165 25.3223 29.2412C24.0615 27.8779 22.8783 26.4555 21.7055 25.0193C21.0963 24.27 20.973 24.2977 20.4694 25.106C20.1806 25.5709 20.0046 26.0912 19.7721 26.5839C19.6806 26.7747 19.6101 26.9793 19.4728 27.1424C19.177 27.4962 19.0255 27.8779 19.1981 28.3358C18.9833 28.3115 18.8741 28.1276 18.7227 28.0097C19.2861 26.4035 19.913 24.8181 20.5856 23.25Z" fill="#3EA2F6"/>
<path d="M42.3824 25.2737C42.1359 25.3812 42.0408 25.52 42.2169 25.7802C42.791 26.6197 43.1889 27.5633 43.7806 28.3924C43.8862 28.5416 44.0059 28.5312 44.1398 28.5555C43.8756 28.6665 43.5904 28.7012 43.3087 28.7185C42.312 28.7775 42.0232 28.6075 41.6147 27.7229C41.2942 27.0395 40.9843 26.3491 40.6639 25.6657C40.5089 25.3396 40.5582 25.2078 40.9491 25.3049C41.4281 25.4228 41.9035 25.2667 42.3824 25.2737Z" fill="#E79B12"/>
<path d="M50.6733 41.5608C50.1028 40.985 49.3703 40.6311 48.7117 40.1732C48.3807 39.9442 48.0144 39.7604 47.6904 39.521C47.4017 39.3059 47.1551 39.233 46.8945 39.5349C47.0284 39.1012 47.37 38.7994 47.6165 38.4421C47.7503 38.2478 47.9229 38.2513 48.1271 38.3692C49.1238 38.952 50.1239 39.5314 51.1276 40.1003C51.4023 40.2564 51.4622 40.4438 51.2755 40.7005C51.0748 40.9884 50.874 41.2729 50.6733 41.5608Z" fill="#F1853F"/>
<path d="M31.4201 22.615C31.3004 22.6393 31.2123 22.6914 31.2828 22.8267C31.8357 23.9368 32.0364 25.1475 32.2935 26.3409C31.9413 26.2646 31.6173 26.1293 31.325 25.9246C30.9235 25.713 30.839 25.3522 30.7404 24.9359C30.5326 24.0547 30.1276 23.2534 29.3775 22.6705C29.2367 22.4728 29.0817 22.2855 29.043 22.0357C29.4127 21.6055 29.5254 21.5812 29.9692 21.8553C30.1065 21.9386 30.2474 22.0114 30.3918 22.0808C30.7545 22.2196 31.0996 22.393 31.4201 22.615Z" fill="#B53C27"/>
<path d="M53.5195 21.3691C53.9633 21.5114 54.2098 21.3483 54.4281 20.9355C54.643 20.5261 54.8402 20.096 55.1959 19.756C55.4635 19.5027 55.4212 19.1905 55.1677 18.9199C55.7699 19.1662 56.3263 19.5201 56.9778 19.6484C57.249 19.7005 57.1786 19.8358 57.0553 19.978C56.5235 20.5886 55.9882 21.1991 55.4565 21.8097C55.3262 21.9589 55.1782 22.0109 54.981 21.9624C54.4669 21.834 53.9562 21.6918 53.5195 21.3691Z" fill="#0479F6"/>
<path d="M30.3927 22.0805C30.2765 22.0459 30.1286 22.0459 30.0476 21.973C29.6778 21.6504 29.3749 21.7822 29.0861 22.0805C28.9417 22.2713 28.7692 22.3373 28.5508 22.195C28.5368 21.3208 28.5191 20.45 28.5156 19.5758C28.5156 19.0763 28.7621 18.6634 29.0756 18.3026C29.5123 17.7996 29.963 17.3035 30.5688 16.9844C30.3504 17.4527 29.8292 17.6192 29.5158 18.0008C29.3256 18.2333 29.1988 18.4588 29.3644 18.7085C29.6426 19.1352 29.7095 19.6209 29.8292 20.0893C29.8891 20.3217 30.0088 20.4639 30.2518 20.4951C30.1462 20.7484 29.9067 20.8802 29.713 21.0502C29.4524 21.2792 29.4876 21.4318 29.7588 21.6157C29.9736 21.7649 30.2307 21.8585 30.3927 22.0805Z" fill="#D7562F"/>
<path d="M73.7458 36.8848C73.9535 37.2456 74.0592 37.6653 74.4114 37.9359C74.3902 37.9463 74.3726 37.9602 74.355 37.9741C73.4464 38.321 72.654 38.9038 71.7525 39.2681C71.5271 39.3583 71.4989 39.5907 71.3686 39.7468C70.7911 39.3652 70.5129 38.7928 70.3086 38.1649C71.02 38.0677 71.6504 37.7416 72.2666 37.419C72.7421 37.1692 73.2386 37.0235 73.7458 36.8848Z" fill="#FEAE3B"/>
<path d="M65.3487 17.9881C65.3627 18.0853 65.317 18.1547 65.243 18.2067C64.1971 18.682 63.2497 19.3307 62.2425 19.8788C62.1721 19.8719 62.0911 19.8823 62.0347 19.8511C61.6861 19.6776 61.1931 19.5388 61.1297 19.1711C61.0698 18.8138 61.6016 18.7791 61.8727 18.6161C62.482 18.2483 63.1265 17.9396 63.7463 17.5927C63.9787 17.4608 64.1372 17.4643 64.3626 17.6378C64.6373 17.8528 64.9049 18.1998 65.3487 17.9881Z" fill="#FEED6A"/>
<path d="M29.3979 22.6191C30.0916 22.8446 30.2642 23.5003 30.5635 24.0345C30.7643 24.3919 30.9615 24.7735 30.9192 25.2245C30.8911 25.5297 31.1974 25.6859 31.3242 25.9287C30.4685 25.5783 29.6726 25.1412 29.0739 24.4162C28.5844 23.7431 28.6935 23.1256 29.3979 22.6191Z" fill="#8A3437"/>
<path d="M71.3665 39.7462C71.2609 39.375 71.4827 39.2258 71.7891 39.1009C72.4407 38.8338 73.0569 38.4973 73.6451 38.1122C73.8634 37.97 74.0994 37.9214 74.3529 37.9734C74.603 38.1677 74.5924 38.3342 74.36 38.5667C74.0008 38.924 73.5852 39.2327 73.307 39.6629C73.1943 39.7358 73.0816 39.8086 72.9689 39.8815C72.4195 40.0757 71.8842 40.1174 71.3771 39.76L71.3665 39.7462Z" fill="#F77615"/>
<path d="M70.0681 36.6749C71.1493 36.3696 72.2692 36.2655 73.3679 36.0573C73.4419 36.0435 73.5018 36.0851 73.537 36.1545C73.625 36.883 73.625 36.8865 72.9277 37.0495C72.248 37.2091 71.5895 37.4381 70.9168 37.6219C70.6809 37.6844 70.3851 37.8752 70.2195 37.6393C70.0364 37.3721 69.8744 37.0322 70.0681 36.6749Z" fill="#EE6806"/>
<path d="M53.5561 17.3315C53.1863 16.9256 52.9503 17.0643 52.658 17.4668C52.4291 17.7825 51.9995 17.9212 51.672 18.1467C51.2247 18.4555 51.1085 18.7295 51.4219 19.1736C51.4783 19.2534 51.4747 19.3713 51.4994 19.4719C51.2036 19.1944 51.0944 18.8232 50.9465 18.4659C50.8655 18.2716 50.9289 18.1259 51.0486 17.9837C51.5557 17.3974 52.0699 16.8146 52.5735 16.2213C52.7919 15.9646 52.9081 15.9854 53.0384 16.3011C53.1863 16.6515 53.3835 16.988 53.5561 17.3315Z" fill="#196EE5"/>
<path d="M62.2422 19.8774C62.2492 19.409 62.7317 19.4264 62.9747 19.298C63.4994 19.017 64.0101 18.7152 64.4996 18.3856C64.732 18.2295 64.9609 18.1359 65.2392 18.2087C65.1687 18.4065 65.0983 18.6042 65.0279 18.8019C64.8835 19.1523 64.6017 19.3743 64.2813 19.5547C63.672 20.0786 62.9888 20.1653 62.2422 19.8774Z" fill="#FCD525"/>
<path d="M70.0689 36.6747C69.9914 36.8516 70.076 37.0216 70.1006 37.1916C70.164 37.594 70.3401 37.6911 70.7662 37.5281C71.46 37.2679 72.1819 37.0667 72.9109 36.9175C73.3864 36.8204 73.5941 36.6226 73.5343 36.1543C73.6751 36.3763 73.6963 36.633 73.7421 36.8828C73.6681 36.9522 73.6012 37.0667 73.5131 37.0875C72.5869 37.2818 71.8262 37.8472 70.9564 38.1629C70.724 38.2462 70.5232 38.3017 70.3049 38.1629C70.1077 37.7883 70.0231 37.3824 69.928 36.9799C69.8999 36.8481 69.8365 36.692 70.0689 36.6747Z" fill="#FB9414"/>
<path d="M48.7648 45.5717C48.7366 45.5891 48.7225 45.6134 48.726 45.6446C48.6732 45.7348 48.6274 45.8284 48.5253 45.8805C48.3668 45.9603 48.2083 45.929 48.071 45.8388C47.1553 45.2422 46.1798 44.7357 45.2748 44.1251C45.0987 44.0071 44.8557 43.8961 44.9578 43.5978C44.9895 43.4625 45.0353 43.3341 45.1621 43.2578C45.1762 43.4625 45.2572 43.6221 45.4438 43.7331C46.3841 44.2847 47.3209 44.8363 48.2541 45.4017C48.4161 45.5023 48.5464 45.5995 48.719 45.4434C48.7331 45.485 48.7507 45.5301 48.7648 45.5717Z" fill="#AF382E"/>
<path d="M29.4 22.6197C29.2626 22.8556 29.1746 23.1158 28.995 23.3344C28.6992 23.6987 28.9386 24.0594 29.076 24.4133C28.59 24.0456 28.509 23.5252 28.516 22.9736C28.5196 22.7134 28.5372 22.4532 28.5442 22.1965C28.7238 22.1584 28.8999 22.1202 29.0795 22.082C29.2873 22.2069 29.3648 22.4012 29.4 22.6197Z" fill="#9E435C"/>
<path d="M64.2852 19.5522C64.5 19.2711 64.7535 19.0214 65.0318 18.7993C65.0881 19.1254 65.2677 18.9381 65.4121 18.8895C65.6551 18.8098 65.8171 18.5426 66.12 18.6051C65.5459 18.9901 64.9684 19.3752 64.2852 19.5522Z" fill="#DCA863"/>
<path d="M53.543 57.6289C54.1698 57.9099 54.7333 58.2742 55.1489 58.8327C54.5889 58.4615 54.0184 58.1042 53.543 57.6289Z" fill="#0796F7"/>
<path d="M71.3789 39.7559C71.8931 40.016 72.4284 39.9987 72.9707 39.8773C72.3509 40.2173 71.8579 40.1791 71.3789 39.7559Z" fill="#FEAE3B"/>
<path d="M30.3633 20.4024C30.6063 20.0729 30.9268 19.8543 31.3353 19.7676C31.0465 20.0278 30.7542 20.2845 30.3633 20.4024Z" fill="#D7562F"/>
<path d="M41.9488 10.334C41.7621 10.6809 41.4698 10.889 41.0859 10.9792C41.3254 10.7017 41.6036 10.4762 41.9488 10.334Z" fill="#D95C32"/>
<path d="M20.9414 75.6035C21.3851 75.607 21.8289 75.6105 22.2761 75.6139C22.2726 75.6486 22.255 75.6729 22.2163 75.6902C21.7937 75.6417 21.357 75.7631 20.9414 75.6035Z" fill="#17B5FE"/>
<path d="M63.0778 27.2755C62.6869 27.2304 62.3206 27.449 61.9297 27.3726C62.3065 27.2582 62.6728 27.0431 63.0778 27.2755Z" fill="#0386E5"/>
<path d="M57.1641 60.2793C57.5409 60.3001 57.7909 60.4909 57.9388 60.824C57.6817 60.6436 57.4247 60.4597 57.1641 60.2793Z" fill="#0796F7"/>
<path d="M50.2266 42.3827C50.2653 42.0497 50.3569 41.7444 50.6738 41.5605C50.5787 41.8624 50.4414 42.1434 50.2266 42.3827Z" fill="#F1853F"/>
<path d="M55.3906 58.9926C55.7252 58.9822 55.9013 59.1764 56.0104 59.4609C55.7815 59.3291 55.5456 59.2146 55.3906 58.9926Z" fill="#0796F7"/>
<path d="M58.9109 61.394C58.8792 61.401 58.8475 61.4114 58.8158 61.4183C58.6221 61.2865 58.4285 61.1512 58.2383 61.0194C58.5764 60.9465 58.7384 61.1824 58.9109 61.394Z" fill="#0796F7"/>
<path d="M9.42994 58.5734C11.8705 60.2108 14.2652 61.9107 16.6283 63.6557C16.7234 63.7112 16.8009 63.7736 16.7551 63.902C16.3782 64.2766 15.8113 64.3668 15.4415 64.7762C15.2443 64.9947 14.9977 65.1786 14.8181 65.4249C14.2441 66.2124 13.5433 66.9028 12.9904 67.7007C12.5854 68.2835 12.1346 68.8143 11.6662 69.345C11.2964 69.7648 11.3317 70.1395 11.6838 70.587C11.8493 70.7986 12.0571 70.9617 12.279 71.1143C12.3741 71.2149 12.522 71.3398 12.4093 71.4647C12.2684 71.6243 12.1311 71.4092 11.9867 71.3814C11.1978 71.0519 10.5604 70.4829 9.8455 70.0319C8.5143 69.1924 7.20071 68.3216 5.88359 67.4648C5.50677 67.0866 5.53142 66.705 5.7392 66.2228C6.57032 64.3044 7.37327 62.3755 8.14452 60.4363C8.3523 59.9159 8.60586 59.4129 8.78899 58.8821C8.89817 58.563 9.08482 58.4068 9.42994 58.5734Z" fill="#0091F5"/>
<path d="M11.993 71.3781C12.1233 71.3191 12.243 71.5065 12.3557 71.3989C12.3733 71.3816 12.2712 71.2394 12.2254 71.1526C11.7077 70.7329 11.7429 70.7016 12.0881 70.1847C12.8945 68.974 13.9686 67.9506 14.6237 66.6358C14.6624 66.556 14.7082 66.4589 14.7857 66.4311C15.2611 66.2681 15.4161 65.8275 15.7154 65.5014C16.1732 65.0018 16.3352 64.367 16.7297 63.857C16.6944 63.7876 16.6627 63.7217 16.6275 63.6523C17.2544 63.8778 17.7016 64.367 18.2475 64.7139C19.1843 65.3037 20.0964 65.9281 21.0191 66.5387C20.2901 66.7017 19.8217 67.2707 19.2618 67.68C18.3813 68.3287 17.4868 68.9879 16.7402 69.7719C16.219 70.32 15.6062 70.7571 15.0815 71.2949C14.7082 71.673 14.2081 72.072 13.5284 71.9228C13.208 71.8534 13.377 72.0928 13.3946 72.2246C12.8945 71.9991 12.4226 71.725 11.993 71.3781Z" fill="#139EF9"/>
<path d="M13.3926 50.2473C13.1073 49.4182 13.4912 48.7105 13.8328 47.9993C14.4421 46.74 15.157 45.5258 15.5655 44.1763C15.6394 43.93 15.8507 43.7774 15.9634 43.5588C16.6044 42.2891 17.3827 41.0818 17.7771 39.6976C17.9109 39.2293 18.1504 39.2467 18.485 39.5242C18.9675 39.9266 19.3724 40.4227 19.9606 40.6933C21.4819 42.0185 23.0068 43.3437 24.5282 44.6655C26.1165 46.0462 27.7083 47.4269 29.3001 48.8076C29.3318 48.87 29.3494 48.9429 29.3917 48.9915C30.0925 49.7963 29.9763 50.3063 28.9761 50.7573C28.9268 50.7781 28.8634 50.7954 28.8423 50.837C28.219 51.9055 27.1554 52.6098 26.4511 53.5985C25.9122 54.3547 25.229 54.9618 24.5951 55.621C24.3486 55.8777 24.1056 56.1309 23.9647 56.464C23.919 56.575 23.845 56.7311 23.7534 56.7589C23.2217 56.9115 23.3379 57.2792 23.433 57.6608C23.2252 57.7198 23.1301 57.4492 22.947 57.5221V57.5186C22.6406 57.248 22.3166 57.0052 21.975 56.7831C20.3691 55.673 18.8583 54.4415 17.3052 53.262C16.0902 52.3392 14.8752 51.4199 13.6603 50.4971C13.5652 50.4242 13.4842 50.3305 13.3926 50.2473Z" fill="#008FF4"/>
<path d="M26.7167 30.658C27.5055 31.5704 28.2768 32.507 29.2875 33.2008C29.3579 33.2702 29.4284 33.3431 29.5023 33.4125C29.7172 33.7247 30.0482 33.9363 30.2595 34.2555C30.3652 34.4324 30.5095 34.5746 30.6856 34.6787C30.749 34.7446 30.7561 34.814 30.6891 34.8868C30.506 34.8938 30.4039 34.7654 30.2877 34.6544C29.2136 33.631 28.1324 32.6215 27.0724 31.5842C26.5688 31.0916 26.1708 30.5088 25.5756 30.0994C25.234 29.8635 25.0615 29.7525 24.66 30.1237C24.2127 30.5331 23.7479 30.939 23.283 31.3379C23.0154 31.5704 22.9203 31.7577 23.3182 31.9485C23.4802 32.0248 23.6105 32.1532 23.5964 32.3613C22.8111 31.7681 22.1314 31.0639 21.4482 30.3666C21.1137 30.0509 20.7861 29.7282 20.4586 29.4056C20.2966 29.246 20.2438 29.076 20.3917 28.8922C20.839 28.3371 21.1172 27.6815 21.5116 27.0952C21.6208 26.9321 21.7546 26.7968 21.9096 26.6719C22.4061 26.273 22.6914 26.2591 23.0964 26.717C24.2761 28.0527 25.4841 29.364 26.7167 30.658Z" fill="#1895F4"/>
<path d="M26.7166 30.6564C25.7587 29.8862 25.005 28.9218 24.1598 28.0476C23.8041 27.6798 23.4801 27.2844 23.1244 26.9166C22.5434 26.3234 22.1665 26.3581 21.6876 27.0381C21.2438 27.666 20.9868 28.4118 20.4479 28.9877C20.2859 29.1612 20.4761 29.3034 20.5923 29.4352C20.8705 29.7509 21.2509 29.9764 21.4481 30.365C20.6416 29.7509 19.9338 29.0328 19.2013 28.339C18.9547 28.0719 18.8315 27.8082 19.1027 27.4717C19.5816 26.8715 19.8211 26.1465 20.1345 25.4596C20.3458 24.9982 20.5888 24.3703 21.0361 24.3078C21.4094 24.2558 21.7404 24.8594 22.0398 25.2306C23.0681 26.5038 24.1281 27.7492 25.2304 28.9634C25.7305 29.5116 26.375 29.9591 26.7166 30.6564Z" fill="#369CF3"/>
<path d="M36.0562 43.3464C36.1266 43.4539 36.1935 43.5649 36.264 43.6725C35.6934 43.3256 35.2039 42.885 34.7461 42.4062C35.2884 42.5762 35.5948 43.0689 36.0562 43.3464Z" fill="#1C9DF8"/>
<path d="M32.9362 51.7113C32.5277 51.4858 32.165 51.2013 31.8516 50.8613C32.3129 51.0209 32.6721 51.3088 32.9362 51.7113Z" fill="#E5F1FE"/>
<path d="M36.2617 43.6699C36.6421 43.7497 36.8463 44.0203 37.0048 44.3395C36.7019 44.1729 36.4448 43.9613 36.2617 43.6699Z" fill="#1C9DF8"/>
<path d="M21.9805 56.7871C22.3925 56.9189 22.72 57.1583 22.9524 57.5225C22.5756 57.3456 22.2587 57.0924 21.9805 56.7871Z" fill="#1C9FF9"/>
<path d="M48.5184 45.7917C48.5853 45.7432 48.6558 45.6911 48.7227 45.6426C48.698 45.8542 48.7931 46.0068 48.941 46.1525C50.7512 47.9495 52.4205 49.8715 54.1109 51.7795C54.5793 52.3068 55.023 52.8549 55.4808 53.3961C55.7696 54.0275 55.9351 54.6311 55.104 55.0092C55.0934 55.5712 54.5898 55.6823 54.2271 55.8939C53.6143 56.2547 53.1142 55.8696 52.6106 55.5817C52.5015 55.5192 52.431 55.3249 52.2655 55.4984C51.9415 55.2174 51.5506 55.0092 51.283 54.6589C51.054 54.5028 50.8885 54.2738 50.6491 54.1281C50.0363 53.5661 49.4235 53.0006 48.8107 52.4386C48.5853 52.2825 48.4198 52.0535 48.1803 51.9078C47.712 51.4499 47.2436 50.9955 46.7752 50.5375C46.1765 49.9998 45.5849 49.4552 45.0672 48.8411C45.046 48.1924 45.4686 47.7414 45.8595 47.3251C46.0497 47.1239 46.1976 46.836 46.497 46.7319C46.7681 46.6348 47.0358 46.5723 47.3211 46.6764C47.5007 46.7423 47.6979 46.8082 47.8493 46.6105C47.8775 46.1768 48.3036 46.0658 48.5184 45.7917Z" fill="#76B0F7"/>
<path d="M45.3941 42.2863C45.0948 42.432 44.7637 42.0539 44.4397 42.4077C44.151 42.7269 44.3235 43.0912 44.1897 43.3826C44.0101 43.7711 43.7319 44.1215 43.4466 44.4511C43.1931 44.7425 42.9712 45.0547 42.7282 45.3496C42.3549 45.804 42.2528 46.1891 42.7071 46.6262C41.971 46.196 41.4639 45.5265 40.8828 44.9367C41.4604 44.4649 41.7492 43.7538 42.2809 43.2542C42.7106 42.8483 43.0874 42.4632 43.0311 41.8249C43.0029 41.5058 43.1015 41.2039 43.4008 41.0686C43.7037 40.9334 43.9854 41.0999 44.2214 41.2976C44.6193 41.6237 45.0067 41.9567 45.3941 42.2863Z" fill="#3A95F3"/>
<path d="M34.8633 38.9102C34.9725 38.9171 35.0746 39.0732 35.1873 38.9206C35.3387 38.8269 35.4197 38.9483 35.4972 39.035C36.3565 39.9786 37.325 40.8216 38.1737 41.7757C38.2441 41.904 38.3779 42.0116 38.3075 42.1815C38.2688 42.2197 38.2335 42.2544 38.1948 42.2926C37.2545 41.4322 36.3213 40.5615 35.4937 39.5936C35.2929 39.3542 34.9055 39.2813 34.8633 38.9102Z" fill="#3EA2F6"/>
<path d="M58.4922 60.4805C59.0451 60.7927 59.6015 61.098 60.1439 61.4275C60.3763 61.5698 60.6263 61.6461 60.8799 61.7328C61.0243 61.7814 61.3166 61.6773 61.2462 61.9687C61.1863 62.222 60.9609 62.326 60.6968 62.2393C60.2566 62.0936 59.8269 61.9271 59.4571 61.6426C59.5381 61.2506 59.193 61.1257 58.9782 60.9384C58.8056 60.7927 58.6084 60.6782 58.4922 60.4805Z" fill="#0796F7"/>
<path d="M30.6871 34.882C30.6871 34.8126 30.6836 34.7432 30.6836 34.6738C31.7683 35.6868 32.8987 36.6582 33.7968 37.8516C33.5256 37.8238 33.4552 37.581 33.2967 37.4249C32.4339 36.568 31.5605 35.7284 30.6871 34.882Z" fill="#3EA2F6"/>
<path d="M45.074 48.8379C45.6692 49.3791 46.2714 49.9133 46.782 50.5343C46.0495 50.1041 45.5389 49.4381 44.9648 48.8448C45.0001 48.8448 45.0388 48.8414 45.074 48.8379Z" fill="#1C9DF8"/>
<path d="M50.6562 54.1289C50.9591 54.1983 51.1317 54.4238 51.2902 54.6597C50.9732 54.6007 50.8218 54.3544 50.6562 54.1289Z" fill="#0796F7"/>
<path d="M48.1875 51.9082C48.4939 51.9741 48.6594 52.2031 48.8179 52.439C48.5045 52.3765 48.353 52.1337 48.1875 51.9082Z" fill="#0796F7"/>
<path d="M34.9785 38.698C33.753 37.5219 32.6436 36.2383 31.5061 34.986C30.5447 33.9279 29.5939 32.8559 28.6606 31.7701C27.3047 30.1882 25.8961 28.6479 24.674 26.9549C24.498 26.726 24.4839 26.4623 24.5578 26.2056C24.7022 25.6852 25.0544 25.2793 25.4242 24.9116C25.7059 24.6306 26.0792 24.7035 26.3961 24.9463C28.1323 26.2334 29.7664 27.6384 31.3934 29.0572C32.3513 29.8968 33.2881 30.7571 34.2319 31.6105C34.7531 32.1864 35.3272 32.7206 35.5807 33.4838C35.6195 33.5983 35.7392 33.6989 35.704 33.8204C35.5068 34.4934 35.8554 35.0554 36.0773 35.6382C36.2111 35.9955 36.2393 36.2973 36.0843 36.6893C35.9118 37.1195 35.7287 37.6087 36.0104 38.1117C36.1477 38.358 36.1477 38.6737 35.9047 38.8957C35.6547 39.1247 35.4469 38.8992 35.2321 38.7916C35.1511 38.75 35.0701 38.7049 34.9785 38.698Z" fill="#0271EB"/>
<path d="M34.9767 38.6979C35.107 38.514 35.2302 38.6632 35.3429 38.7152C35.5085 38.795 35.6599 39.0101 35.8501 38.802C36.0191 38.6146 36.0261 38.2989 35.9029 38.1602C35.438 37.6433 35.7233 37.0015 35.924 36.6754C36.2374 36.1654 35.998 35.8359 35.8465 35.489C35.6916 35.1351 35.6916 34.7327 35.4521 34.417C35.431 34.3892 35.4169 34.3476 35.4239 34.3198C35.6564 33.2791 35.0013 32.6096 34.3886 31.9227C34.304 31.829 34.2266 31.7388 34.2266 31.6035C36.1846 33.3381 38.118 35.0969 39.9176 36.9946C40.3085 37.3935 40.3191 37.8133 40.2557 38.3787C40.1571 39.2668 39.8824 40.0266 39.3894 40.7482C39.3013 40.8765 39.3225 41.0534 39.2978 41.2096C39.1675 41.9658 38.8259 42.1497 38.0934 41.8583C37.1249 40.8765 36.1529 39.8948 35.1845 38.9165C35.1176 38.8471 35.0471 38.7742 34.9767 38.6979Z" fill="#0C83F0"/>
<path d="M38.0938 41.8618C39.0376 41.8652 39.034 41.8652 39.1714 40.9112C39.2137 40.6268 39.3545 40.3874 39.5412 40.1723C39.918 39.7456 40.161 39.2807 39.9743 38.691C39.9532 38.6285 39.9426 38.5279 39.9743 38.4932C40.4709 37.9729 40.0765 37.4907 39.918 36.998C40.5836 37.3346 40.9956 37.9451 41.5063 38.4447C41.5943 38.5314 41.6401 38.6598 41.7352 38.7326C42.3444 39.1975 42.3726 39.6866 42.274 40.4776C42.1543 41.4247 41.7352 42.0942 41.2527 42.8089C41.1858 42.9095 41.1083 43.017 41.0872 43.1315C40.9111 44.0716 40.08 43.9329 39.5799 43.357C39.196 42.9129 38.7206 42.5799 38.3051 42.1809C38.2381 42.0734 38.1677 41.9693 38.0938 41.8618Z" fill="#238DF2"/>
<path d="M26.3943 24.9425C25.8379 24.7725 25.5033 24.894 25.1547 25.449C24.8412 25.9451 24.5771 26.3683 24.6757 26.9546C23.6122 25.7612 22.7529 24.436 21.9922 23.0414C22.0485 22.5419 22.2 22.4343 22.6754 22.5835C23.5629 22.8645 24.3271 23.3883 25.0631 23.9226C25.5104 24.2522 26.0245 24.5124 26.3943 24.9425Z" fill="#186CE7"/>
<path d="M48.5199 45.7921C48.4037 46.146 48.0374 46.3021 47.8613 46.6108C47.6993 46.6282 47.5514 46.6212 47.4 46.531C46.2871 45.8892 45.1707 45.2544 44.0156 44.5953C44.3396 44.2553 44.6495 43.9257 44.9594 43.5996C45.2482 44.1547 45.8469 44.3143 46.3259 44.6265C46.914 45.0081 47.5197 45.3689 48.1149 45.7401C48.2452 45.8199 48.379 45.8407 48.5199 45.7921Z" fill="#6A2954"/>
<path d="M30.2572 34.2512C29.9649 34.0049 29.6268 33.8002 29.5 33.4082C29.8029 33.6476 30.1409 33.8523 30.2572 34.2512Z" fill="#3EA2F6"/>
<path d="M16.7294 63.8594C16.6589 64.4144 16.3772 64.8966 16.0532 65.3164C15.8842 65.535 15.6834 65.7119 15.5954 65.986C15.5637 66.0831 15.5285 66.2357 15.458 66.2566C14.3945 66.5965 14.2677 67.7171 13.6162 68.4074C13.1055 68.9486 12.6689 69.5835 12.2286 70.1975C11.9434 70.5964 11.8659 70.8254 12.2216 71.1515C11.1721 70.6034 10.9503 69.7292 11.7567 69.0249C12.4857 68.3901 12.8555 67.4846 13.5211 66.8116C14.2536 66.0727 14.7326 65.1325 15.5778 64.4769C15.944 64.1959 16.3878 64.1334 16.7294 63.8594Z" fill="#019CFB"/>
</svg>
