<svg width="56" height="56" viewBox="0 0 56 56" fill="none" xmlns="http://www.w3.org/2000/svg">
<path d="M43.095 39.2694L44.005 46.6427C44.2383 48.5793 42.1617 49.9326 40.505 48.9293L30.7283 43.1193C29.655 43.1193 28.605 43.0494 27.5784 42.9094C29.305 40.8794 30.3317 38.3126 30.3317 35.536C30.3317 28.9093 24.5917 23.5427 17.4983 23.5427C14.7917 23.5427 12.295 24.3127 10.2184 25.666C10.1484 25.0827 10.125 24.4993 10.125 23.8927C10.125 13.276 19.3417 4.66602 30.7283 4.66602C42.115 4.66602 51.3317 13.276 51.3317 23.8927C51.3317 30.1927 48.0883 35.7694 43.095 39.2694Z" stroke="#9BA1A8" stroke-width="2.05882" stroke-linecap="round" stroke-linejoin="round"/>
<path d="M30.3346 35.5362C30.3346 38.3129 29.308 40.8796 27.5813 42.9096C25.2713 45.7096 21.608 47.5062 17.5013 47.5062L11.4113 51.1228C10.3846 51.7528 9.07796 50.8895 9.21796 49.6995L9.80129 45.1029C6.67463 42.9329 4.66797 39.4562 4.66797 35.5362C4.66797 31.4295 6.86131 27.8129 10.2213 25.6662C12.298 24.3129 14.7946 23.543 17.5013 23.543C24.5946 23.543 30.3346 28.9095 30.3346 35.5362Z" stroke="#9BA1A8" stroke-width="2.05882" stroke-linecap="round" stroke-linejoin="round"/>
</svg>
