<svg width="907" height="668" viewBox="0 0 907 668" fill="none" xmlns="http://www.w3.org/2000/svg">
<path d="M322.816 153.844C362.705 153.682 401.471 167.449 432.792 192.902L434.486 194.284L436.039 195.521C445.313 203.355 453.802 212.127 461.38 221.705L894.083 667.712V468.347L604.673 169.7L539.309 102.348C499.151 61.0262 448.954 31.5845 393.969 17.1033C220.252 -28.6466 42.6534 83.1461 6.58306 264.4C-8.50679 340.236 2.52981 419.119 37.7935 487.475C73.0572 555.831 130.342 609.383 199.789 638.914C269.237 668.445 346.502 672.109 418.288 649.275C490.074 626.44 551.89 578.536 593.097 513.806L600.156 501.66L602.697 497.223L620.838 467.038L520.674 363.755L520.18 364.41L473.945 437.144C457.326 464.263 434.132 486.448 406.652 501.511C379.172 516.573 348.355 523.991 317.242 523.034C286.13 522.077 255.798 512.778 229.239 496.053C202.679 479.329 180.811 455.757 165.792 427.665C150.773 399.573 143.122 367.932 143.594 335.863C144.066 303.794 152.646 272.406 168.485 244.796C184.325 217.187 206.877 194.31 233.917 178.424C260.957 162.538 291.549 154.191 322.675 154.207L322.816 153.844Z" fill="#004882"/>
<path d="M748.521 256.982L748.733 256.691L906.002 0.375H743.862L649.416 154.354L648.992 155.009L748.521 256.982Z" fill="#C20C38"/>
</svg>
