<svg width="137" height="43" viewBox="0 0 137 43" fill="none" xmlns="http://www.w3.org/2000/svg">
<path d="M116.156 15.6742C117.513 15.6689 118.832 16.1235 119.898 16.964L119.956 17.0097L120.009 17.0505C120.324 17.3092 120.613 17.5989 120.871 17.9151L135.594 32.6431V26.0597L125.746 16.1978L123.522 13.9738C122.156 12.6093 120.448 11.637 118.577 11.1588C112.666 9.6481 106.623 13.3397 105.396 19.325C104.882 21.8292 105.258 24.4341 106.458 26.6913C107.658 28.9485 109.607 30.7169 111.97 31.6921C114.333 32.6673 116.962 32.7883 119.405 32.0342C121.847 31.2802 123.95 29.6983 125.353 27.5608L125.593 27.1597L125.679 27.0132L126.296 26.0165L122.888 22.6059L122.871 22.6275L121.298 25.0293C120.733 25.9248 119.944 26.6574 119.009 27.1548C118.074 27.6522 117.025 27.8971 115.966 27.8655C114.908 27.8339 113.876 27.5269 112.972 26.9746C112.068 26.4223 111.324 25.6439 110.813 24.7163C110.302 23.7887 110.042 22.7438 110.058 21.6848C110.074 20.6258 110.366 19.5894 110.905 18.6777C111.444 17.7659 112.211 17.0105 113.131 16.4859C114.051 15.9613 115.092 15.6857 116.151 15.6863L116.156 15.6742Z" fill="#004882"/>
<path d="M130.644 19.083L130.652 19.0734L136.003 10.6094H130.486L127.272 15.694L127.258 15.7156L130.644 19.083Z" fill="#C20C38"/>
<path d="M1.23934 15.7907C1.9885 14.2166 3.16538 12.8849 4.6355 11.9478C6.07539 11.0502 7.74248 10.5842 9.43913 10.6052C10.8179 10.5772 12.1819 10.8942 13.4069 11.5275C14.4876 12.0836 15.3998 12.9187 16.0489 13.9461V10.9151H22.6131V32.3368H19.0704C18.2677 32.3343 17.4989 32.0135 16.9325 31.4448C16.366 30.8761 16.0483 30.106 16.0489 29.3033C15.382 30.3254 14.463 31.1584 13.3805 31.722C12.1537 32.3575 10.7868 32.6746 9.4055 32.6443C7.72007 32.6602 6.06629 32.1862 4.64511 31.28C3.17395 30.3296 1.99767 28.9869 1.24895 27.4035C0.416317 25.727 0 23.788 0 21.5863C0 19.3846 0.413113 17.4528 1.23934 15.7907ZM14.6751 17.7482C14.2464 17.3003 13.7317 16.9435 13.1618 16.6991C12.592 16.4547 11.9787 16.3278 11.3587 16.3261C10.7386 16.3243 10.1246 16.4476 9.55336 16.6887C8.9821 16.9297 8.46537 17.2836 8.03407 17.729C7.13259 18.6641 6.68185 19.9499 6.68185 21.5863C6.68185 23.2227 7.13579 24.5221 8.04368 25.4845C8.46898 25.9382 8.98254 26.3003 9.55284 26.5483C10.1231 26.7964 10.7381 26.9253 11.36 26.9271C11.9819 26.9289 12.5977 26.8036 13.1694 26.5588C13.7411 26.314 14.2568 25.955 14.6847 25.5037C15.5926 24.5574 16.0473 23.2644 16.0489 21.6247C16.0505 19.9851 15.5926 18.6929 14.6751 17.7482Z" fill="#004882"/>
<path d="M31.0446 0.929688V32.3382H24.4805V3.92715L31.0446 0.929688Z" fill="#004882"/>
<path d="M42.1493 11.5315C43.3683 10.8959 44.7284 10.5795 46.1027 10.6116C47.7994 10.5906 49.4665 11.0566 50.9064 11.9542C52.3766 12.8918 53.5541 14.2233 54.3049 15.7971C55.136 17.4592 55.5515 19.391 55.5515 21.5927C55.5515 23.7944 55.136 25.7334 54.3049 27.4099C53.5546 28.993 52.3776 30.3354 50.9064 31.2864C49.4713 32.1972 47.8023 32.6712 46.1027 32.6507C44.7347 32.6784 43.3817 32.3612 42.1686 31.7283C41.0932 31.1718 40.1755 30.3532 39.5001 29.3482V42.5581H32.9336V10.919H39.5001V13.9501C40.1628 12.9314 41.0747 12.0989 42.1493 11.5315ZM47.5174 17.733C47.0854 17.2781 46.5632 16.9184 45.9841 16.6768C45.4051 16.4353 44.7821 16.3173 44.1549 16.3303C43.5324 16.3207 42.9148 16.4423 42.3425 16.6873C41.7702 16.9323 41.2559 17.2952 40.8332 17.7522C39.9253 18.6985 39.4713 19.9907 39.4713 21.6287C39.4713 23.2668 39.9253 24.5597 40.8332 25.5076C41.2639 25.958 41.7817 26.3161 42.355 26.5601C42.9284 26.8041 43.5454 26.9291 44.1686 26.9273C44.7917 26.9255 45.408 26.797 45.98 26.5496C46.552 26.3023 47.0677 25.9413 47.4958 25.4884C48.4165 24.5277 48.8768 23.2283 48.8768 21.5903C48.8768 19.9522 48.4237 18.6665 47.5174 17.733Z" fill="#004882"/>
<path d="M76.5004 13.1237C77.9879 14.7489 78.7317 16.9818 78.7317 19.8223V32.3382H72.1987V20.7062C72.1987 19.2651 71.828 18.1515 71.0867 17.3653C70.3453 16.5791 69.347 16.1788 68.0916 16.1644C66.8379 16.1644 65.8395 16.5647 65.0966 17.3653C64.3536 18.1659 63.9829 19.2795 63.9845 20.7062V32.3382H57.418V3.92715L63.9845 0.929688V13.7938C64.688 12.8167 65.6309 12.0368 66.7226 11.5289C67.9328 10.9536 69.2593 10.6652 70.5991 10.6859C73.049 10.6859 75.0161 11.4985 76.5004 13.1237Z" fill="#004882"/>
<path d="M81.8559 15.791C82.6067 14.2172 83.7842 12.8857 85.2545 11.9481C86.6944 11.0505 88.3615 10.5845 90.0581 10.6055C91.4384 10.5752 92.8042 10.8915 94.0307 11.5254C95.1118 12.0808 96.0242 12.916 96.6727 13.944V10.9153H103.232V32.3371H99.6894C98.8848 32.3371 98.1133 32.0175 97.5444 31.4486C96.9755 30.8797 96.6559 30.1081 96.6559 29.3036C95.9897 30.3263 95.0705 31.1594 93.9875 31.7222C92.7638 32.3569 91.4003 32.674 90.0221 32.6445C88.3366 32.6607 86.6828 32.1868 85.2617 31.2803C83.7877 30.3303 82.6082 28.9878 81.8559 27.4038C81.0249 25.7273 80.6094 23.7882 80.6094 21.5866C80.6094 19.3849 81.0249 17.4531 81.8559 15.791ZM95.3061 17.7485C94.8774 17.3006 94.3627 16.9437 93.7928 16.6994C93.223 16.455 92.6097 16.3281 91.9897 16.3263C91.3696 16.3245 90.7556 16.4479 90.1843 16.6889C89.6131 16.93 89.0964 17.2838 88.6651 17.7293C87.7556 18.6644 87.3008 19.9502 87.3008 21.5866C87.3008 23.223 87.7556 24.5224 88.6651 25.4847C89.0904 25.9385 89.6039 26.3005 90.1742 26.5486C90.7445 26.7967 91.3595 26.9256 91.9814 26.9274C92.6033 26.9292 93.2191 26.8039 93.7908 26.5591C94.3625 26.3143 94.8781 25.9552 95.3061 25.5039C96.214 24.5576 96.6679 23.2647 96.6679 21.625C96.6679 19.9854 96.214 18.6932 95.3061 17.7485Z" fill="#004882"/>
</svg>
