<svg width="24" height="24" viewBox="0 0 24 24" fill="none" xmlns="http://www.w3.org/2000/svg">
<path d="M10.9374 2.56703C11.5644 2.08703 12.4359 2.08703 13.0629 2.56703L20.5059 8.25653C21.4539 8.98103 20.9454 10.493 19.7544 10.499H4.2444C3.0549 10.493 2.5449 8.98103 3.4944 8.25653L10.9374 2.56703ZM11.9994 7.87403C12.2978 7.87403 12.5839 7.7555 12.7949 7.54453C13.0059 7.33355 13.1244 7.0474 13.1244 6.74903C13.1244 6.45066 13.0059 6.16451 12.7949 5.95354C12.5839 5.74256 12.2978 5.62403 11.9994 5.62403C11.701 5.62403 11.4149 5.74256 11.2039 5.95354C10.9929 6.16451 10.8744 6.45066 10.8744 6.74903C10.8744 7.0474 10.9929 7.33355 11.2039 7.54453C11.4149 7.7555 11.701 7.87403 11.9994 7.87403Z" fill="#006298"/>
<path d="M5.25 12V16.5H7.5V12H5.25Z" fill="#006298"/>
<path d="M9 12V16.5H11.25V12H9Z" fill="#006298"/>
<path d="M12.75 12V16.5H15V12H12.75Z" fill="#006298"/>
<path d="M16.5 12V16.5H18.75V12H16.5Z" fill="#006298"/>
<path d="M3 19.875C3 18.84 3.84 18 4.875 18H19.125C20.16 18 21 18.84 21 19.875V20.25C21 20.4489 20.921 20.6397 20.7803 20.7803C20.6397 20.921 20.4489 21 20.25 21H3.75C3.55109 21 3.36032 20.921 3.21967 20.7803C3.07902 20.6397 3 20.4489 3 20.25V19.875Z" fill="#006298"/>
</svg>
