<svg width="21" height="20" viewBox="0 0 21 20" fill="none" xmlns="http://www.w3.org/2000/svg">
<mask id="mask0_6822_39437" style="mask-type:alpha" maskUnits="userSpaceOnUse" x="0" y="0" width="21" height="21">
<path fill-rule="evenodd" clip-rule="evenodd" d="M0 0H20.0027V20.001H0V0Z" fill="white"/>
</mask>
<g mask="url(#mask0_6822_39437)">
<path fill-rule="evenodd" clip-rule="evenodd" d="M8.94472 18.0754C9.53472 18.6514 10.4847 18.6444 11.0707 18.0554L11.7927 17.3354C12.3527 16.7764 13.1267 16.4574 13.9157 16.4574H14.9457C15.7797 16.4574 16.4577 15.7794 16.4577 14.9464V13.9174C16.4577 13.1164 16.7677 12.3634 17.3337 11.7964L18.0537 11.0754C18.3467 10.7814 18.5037 10.4004 18.5027 9.99639C18.5017 9.59339 18.3427 9.21439 18.0557 8.92839L17.3347 8.20639C16.7677 7.63539 16.4577 6.88339 16.4577 6.08239V5.05539C16.4577 4.22139 15.7797 3.54339 14.9457 3.54339H13.9177C13.1167 3.54339 12.3637 3.23239 11.7967 2.66939L11.0747 1.94639C10.4737 1.35139 9.51472 1.35439 8.92772 1.94539L8.20872 2.66639C7.63472 3.23339 6.88172 3.54339 6.08372 3.54339H5.05472C4.22172 3.54439 3.54372 4.22239 3.54372 5.05539V6.08039C3.54372 6.88139 3.23272 7.63439 2.66872 8.20239L1.95872 8.91339C1.95172 8.92139 1.94472 8.92739 1.93772 8.93439C1.35072 9.52539 1.35372 10.4844 1.94472 11.0714L2.66672 11.7934C3.23272 12.3614 3.54372 13.1144 3.54372 13.9154V14.9464C3.54372 15.7794 4.22072 16.4574 5.05472 16.4574H6.08172C6.88372 16.4584 7.63672 16.7694 8.20372 17.3344L8.92472 18.0534C8.93072 18.0604 8.93772 18.0674 8.94472 18.0754V18.0754ZM9.99872 20.0014C9.23172 20.0014 8.46472 19.7114 7.87772 19.1294C7.86972 19.1214 7.86172 19.1134 7.85372 19.1044L7.14372 18.3954C6.86072 18.1144 6.48272 17.9584 6.08072 17.9574H5.05472C3.39372 17.9574 2.04372 16.6064 2.04372 14.9464V13.9154C2.04372 13.5134 1.88672 13.1364 1.60472 12.8524L0.885722 12.1344C-0.282278 10.9724 -0.296278 9.08039 0.850722 7.90039C0.859722 7.89139 0.868722 7.88239 0.877722 7.87339L1.60572 7.14339C1.88672 6.86039 2.04372 6.48139 2.04372 6.08039V5.05539C2.04372 3.39539 3.39372 2.04439 5.05372 2.04339H6.08372C6.48472 2.04339 6.86272 1.88639 7.14972 1.60339L7.86472 0.886387C9.03372 -0.290613 10.9447 -0.296613 12.1237 0.875387L12.8547 1.60639C13.1377 1.88739 13.5157 2.04339 13.9177 2.04339H14.9457C16.6067 2.04339 17.9577 3.39439 17.9577 5.05539V6.08239C17.9577 6.48339 18.1137 6.86239 18.3967 7.14739L19.1147 7.86639C19.6837 8.43139 19.9997 9.18639 20.0027 9.99139C20.0057 10.7964 19.6947 11.5534 19.1277 12.1244L18.3947 12.8554C18.1137 13.1384 17.9577 13.5154 17.9577 13.9174V14.9464C17.9577 16.6064 16.6067 17.9574 14.9467 17.9574H13.9157C13.5197 17.9574 13.1327 18.1174 12.8517 18.3964L12.1337 19.1144C11.5467 19.7054 10.7727 20.0014 9.99872 20.0014V20.0014Z" fill="white"/>
</g>
<path fill-rule="evenodd" clip-rule="evenodd" d="M7.43011 13.3214C7.23811 13.3214 7.04611 13.2484 6.90011 13.1014C6.60711 12.8084 6.60711 12.3344 6.90011 12.0414L12.0401 6.90041C12.3331 6.60741 12.8081 6.60741 13.1011 6.90041C13.3941 7.19341 13.3941 7.66841 13.1011 7.96141L7.96011 13.1014C7.81411 13.2484 7.62211 13.3214 7.43011 13.3214" fill="white"/>
<path fill-rule="evenodd" clip-rule="evenodd" d="M12.5034 13.499C11.9504 13.499 11.4984 13.052 11.4984 12.499C11.4984 11.946 11.9414 11.499 12.4944 11.499H12.5034C13.0564 11.499 13.5034 11.946 13.5034 12.499C13.5034 13.052 13.0564 13.499 12.5034 13.499" fill="white"/>
<path fill-rule="evenodd" clip-rule="evenodd" d="M7.50335 8.49902C6.95035 8.49902 6.49835 8.05202 6.49835 7.49902C6.49835 6.94602 6.94135 6.49902 7.49435 6.49902H7.50335C8.05635 6.49902 8.50335 6.94602 8.50335 7.49902C8.50335 8.05202 8.05635 8.49902 7.50335 8.49902" fill="white"/>
</svg>
