<svg width="60" height="60" viewBox="0 0 60 60" fill="none" xmlns="http://www.w3.org/2000/svg">
<path fill-rule="evenodd" clip-rule="evenodd" d="M39.2883 42.4336H21.2383C20.2033 42.4336 19.3633 41.5936 19.3633 40.5586C19.3633 39.5236 20.2033 38.6836 21.2383 38.6836H39.2883C40.3233 38.6836 41.1633 39.5236 41.1633 40.5586C41.1633 41.5936 40.3233 42.4336 39.2883 42.4336Z" fill="#0074B3"/>
<path fill-rule="evenodd" clip-rule="evenodd" d="M39.2883 31.9688H21.2383C20.2033 31.9688 19.3633 31.1288 19.3633 30.0938C19.3633 29.0587 20.2033 28.2188 21.2383 28.2188H39.2883C40.3233 28.2188 41.1633 29.0587 41.1633 30.0938C41.1633 31.1288 40.3233 31.9688 39.2883 31.9688Z" fill="#0074B3"/>
<path fill-rule="evenodd" clip-rule="evenodd" d="M28.1258 21.5234H21.2383C20.2033 21.5234 19.3633 20.6834 19.3633 19.6484C19.3633 18.6134 20.2033 17.7734 21.2383 17.7734H28.1258C29.1608 17.7734 30.0008 18.6134 30.0008 19.6484C30.0008 20.6834 29.1608 21.5234 28.1258 21.5234Z" fill="#0074B3"/>
<mask id="mask0" style="mask-type:alpha" maskUnits="userSpaceOnUse" x="7" y="5" width="46" height="50">
<path fill-rule="evenodd" clip-rule="evenodd" d="M7.5 5H52.9118V54.7745H7.5V5Z" fill="white"/>
</mask>
<g mask="url(#mask0)">
<path fill-rule="evenodd" clip-rule="evenodd" d="M39.7725 8.75L20.55 8.76C14.73 8.795 11.25 12.395 11.25 18.3925V41.3825C11.25 47.42 14.7625 51.025 20.64 51.025L39.8625 51.0175C45.6825 50.9825 49.1625 47.3775 49.1625 41.3825V18.3925C49.1625 12.355 45.6525 8.75 39.7725 8.75ZM20.6425 54.775C12.7825 54.775 7.5 49.3925 7.5 41.3825V18.3925C7.5 10.31 12.6175 5.0575 20.5375 5.01L39.77 5H39.7725C47.6325 5 52.9125 10.3825 52.9125 18.3925V41.3825C52.9125 49.4625 47.795 54.7175 39.875 54.7675L20.6425 54.775Z" fill="#0074B3"/>
</g>
</svg>
