<svg width="34" height="40" viewBox="0 0 34 40" fill="none" xmlns="http://www.w3.org/2000/svg">
<path d="M0 3C0 2.20435 0.31607 1.44129 0.87868 0.87868C1.44129 0.31607 2.20435 0 3 0H23.333L33.333 10V37C33.333 37.7956 33.0169 38.5587 32.4543 39.1213C31.8917 39.6839 31.1286 40 30.333 40H3C2.20435 40 1.44129 39.6839 0.87868 39.1213C0.31607 38.5587 0 37.7956 0 37V3Z" fill="#F5F5F5"/>
<path d="M0 28H33.333V37C33.333 37.7956 33.0169 38.5587 32.4543 39.1213C31.8917 39.6839 31.1286 40 30.333 40H3C2.20435 40 1.44129 39.6839 0.87868 39.1213C0.31607 38.5587 0 37.7956 0 37V28Z" fill="#263238"/>
<path d="M25.8667 9.99059C25.2089 9.99059 24.5781 9.72931 24.113 9.26422C23.6479 8.79913 23.3867 8.16833 23.3867 7.51059V0.0585938L33.3327 9.99059H25.8667Z" fill="#DBDBDB"/>
<path fill-rule="evenodd" clip-rule="evenodd" d="M10.75 22.552C10.564 22.552 10.379 22.484 10.234 22.346C9.93301 22.062 9.92101 21.586 10.206 21.287L11.734 19.674C12.543 18.815 13.908 18.773 14.771 19.583L15.729 20.555C15.996 20.825 16.43 20.83 16.698 20.566C16.799 20.447 18.977 17.802 18.977 17.802C19.391 17.3 19.975 16.99 20.624 16.926C21.274 16.869 21.905 17.058 22.408 17.471C22.451 17.506 22.49 17.54 24.686 19.795C24.975 20.091 24.97 20.566 24.673 20.855C24.377 21.146 23.901 21.137 23.612 20.841C23.612 20.841 21.563 18.738 21.417 18.596C21.262 18.469 21.013 18.395 20.768 18.419C20.519 18.444 20.295 18.563 20.136 18.756C17.812 21.575 17.784 21.602 17.746 21.639C16.888 22.481 15.503 22.467 14.66 21.607C14.66 21.607 13.73 20.663 13.714 20.644C13.483 20.43 13.071 20.444 12.824 20.705L11.294 22.318C11.146 22.474 10.948 22.552 10.75 22.552Z" fill="#CFCFCF"/>
<path fill-rule="evenodd" clip-rule="evenodd" d="M14.0264 13.5C13.4734 13.5 13.0234 13.95 13.0234 14.504C13.0234 15.058 13.4734 15.509 14.0274 15.509C14.5814 15.509 15.0324 15.058 15.0324 14.504C15.0324 13.951 14.5814 13.501 14.0264 13.5ZM14.0274 17.009C12.6464 17.009 11.5234 15.885 11.5234 14.504C11.5234 13.123 12.6464 12 14.0274 12C15.4094 12.001 16.5324 13.125 16.5324 14.504C16.5324 15.885 15.4084 17.009 14.0274 17.009Z" fill="#CFCFCF"/>
<path d="M10.6374 35.1358H10V32.0425H10.6374V35.1358Z" fill="#CFCFCF"/>
<path d="M12.0629 32.0425L12.8575 34.286L13.6478 32.0425H14.4849V35.1358H13.8454V34.2902L13.9091 32.8307L13.0742 35.1358H12.6365L11.8037 32.8328L11.8675 34.2902V35.1358H11.2301V32.0425H12.0629Z" fill="#CFCFCF"/>
<path d="M16.8261 34.4984H15.7086L15.4962 35.1358H14.8184L15.9699 32.0425H16.5605L17.7184 35.1358H17.0407L16.8261 34.4984ZM15.8807 33.9822H16.654L16.2652 32.8243L15.8807 33.9822Z" fill="#CFCFCF"/>
<path d="M20.4081 34.7449C20.2933 34.8823 20.1312 34.9892 19.9216 35.0657C19.7119 35.1408 19.4797 35.1783 19.2247 35.1783C18.957 35.1783 18.7219 35.1202 18.5194 35.0041C18.3182 34.8865 18.1624 34.7166 18.052 34.4942C17.9429 34.2718 17.887 34.0105 17.8841 33.7102V33.4999C17.8841 33.1912 17.9358 32.9242 18.0392 32.699C18.144 32.4724 18.2942 32.2996 18.4896 32.1806C18.6865 32.0602 18.9167 32 19.1801 32C19.5469 32 19.8337 32.0878 20.0405 32.2634C20.2473 32.4377 20.3698 32.6919 20.4081 33.0261H19.7877C19.7594 32.8491 19.6964 32.7195 19.5986 32.6374C19.5023 32.5552 19.3692 32.5141 19.1992 32.5141C18.9825 32.5141 18.8175 32.5956 18.7042 32.7585C18.5909 32.9213 18.5335 33.1635 18.5321 33.485V33.6826C18.5321 34.007 18.5937 34.252 18.7169 34.4177C18.8402 34.5834 19.0208 34.6663 19.2587 34.6663C19.4981 34.6663 19.6687 34.6153 19.7707 34.5133V33.9801H19.1907V33.5105H20.4081V34.7449Z" fill="#CFCFCF"/>
<path d="M22.7875 33.7952H21.5638V34.6238H23V35.1358H20.9265V32.0425H22.9958V32.5588H21.5638V33.296H22.7875V33.7952Z" fill="#CFCFCF"/>
</svg>
