<svg width="13" height="13" viewBox="0 0 13 13" fill="none" xmlns="http://www.w3.org/2000/svg">
<path fill-rule="evenodd" clip-rule="evenodd" d="M1.85323 0.875C1.31317 0.875 0.875 1.32054 0.875 1.869V2.45403C0.875 2.86029 1.02949 3.25099 1.30585 3.54486L4.33444 6.7652L4.33577 6.76317C4.92044 7.36174 5.24941 8.17089 5.24941 9.01457V11.872C5.24941 12.0629 5.44918 12.1848 5.615 12.0948L7.33972 11.1549C7.60009 11.0127 7.76258 10.7365 7.76258 10.4365V9.00712C7.76258 8.16818 8.08688 7.36242 8.66623 6.7652L11.6948 3.54486C11.9705 3.25099 12.125 2.86029 12.125 2.45403V1.869C12.125 1.32054 11.6875 0.875 11.1474 0.875H1.85323Z" stroke="white" stroke-linecap="round" stroke-linejoin="round"/>
</svg>
