<svg width="40" height="40" viewBox="0 0 60 60" fill="none" xmlns="http://www.w3.org/2000/svg">
<mask id="mask0_5153:34547" style="mask-type:alpha" maskUnits="userSpaceOnUse" x="5" y="5" width="52" height="52">
<path fill-rule="evenodd" clip-rule="evenodd" d="M5 5H56.7415V56.6722H5V5Z" fill="white"/>
</mask>
<g mask="url(#mask0_5153:34547)">
<path fill-rule="evenodd" clip-rule="evenodd" d="M19.1075 8.75C11.8475 8.75 8.75 12.44 8.75 21.0825V40.58C8.75 48.54 13.145 52.9225 21.125 52.9225H40.58C48.54 52.9225 52.9225 48.54 52.9225 40.58V40.5725L52.9925 28.16C52.9925 19.6625 50.0775 16.35 42.59 16.35H35.515C33.1425 16.3475 30.8775 15.215 29.4525 13.32L27.17 10.285C26.4525 9.3225 25.305 8.7525 24.105 8.75H19.1075ZM40.58 56.6725H21.125C11.18 56.6725 5 50.505 5 40.58V21.0825C5 10.41 9.7475 5 19.1075 5H24.1075C26.485 5.0025 28.75 6.1375 30.17 8.035L32.4475 11.065C33.17 12.025 34.3175 12.5975 35.5175 12.6H42.59C52.245 12.6 56.7425 17.5475 56.7425 28.17L56.6725 40.5875C56.67 50.5075 50.505 56.6725 40.58 56.6725V56.6725Z" fill="#0074B3"/>
</g>
<path fill-rule="evenodd" clip-rule="evenodd" d="M41.7906 39.2773H19.9531C18.9181 39.2773 18.0781 38.4373 18.0781 37.4023C18.0781 36.3673 18.9181 35.5273 19.9531 35.5273H41.7906C42.8256 35.5273 43.6656 36.3673 43.6656 37.4023C43.6656 38.4373 42.8256 39.2773 41.7906 39.2773" fill="#0074B3"/>
</svg>
