<svg width="101" height="100" viewBox="0 0 101 100" fill="none" xmlns="http://www.w3.org/2000/svg">
<g id="Iconly/Bulk/Message">
<g id="Group">
<path id="Fill 1" opacity="0.4" d="M91.6654 66.4173C91.6654 78.0423 82.332 87.459 70.707 87.5006H70.6654H29.3737C17.7904 87.5006 8.33203 78.1256 8.33203 66.5006V66.459C8.33203 66.459 8.35703 48.0173 8.39036 38.7423C8.39453 37.0006 10.3945 36.0257 11.757 37.109C21.657 44.9631 39.3612 59.284 39.582 59.4715C42.5404 61.8423 46.2904 63.1798 50.1237 63.1798C53.957 63.1798 57.707 61.8423 60.6654 59.4256C60.8862 59.2798 78.1945 45.3881 88.2445 37.4048C89.6112 36.3173 91.6195 37.2923 91.6237 39.0298C91.6654 48.234 91.6654 66.4173 91.6654 66.4173Z" fill="#909090"/>
<path id="Fill 4" d="M89.4837 23.6417C85.8753 16.8417 78.7753 12.5 70.9587 12.5H29.3753C21.5587 12.5 14.4587 16.8417 10.8503 23.6417C10.042 25.1625 10.4253 27.0583 11.7712 28.1333L42.7087 52.8792C44.8753 54.6292 47.5003 55.5 50.1253 55.5C50.142 55.5 50.1545 55.5 50.167 55.5C50.1795 55.5 50.1962 55.5 50.2087 55.5C52.8337 55.5 55.4587 54.6292 57.6253 52.8792L88.5628 28.1333C89.9087 27.0583 90.292 25.1625 89.4837 23.6417Z" fill="#0E456D"/>
</g>
<g id="Group 34752">
<path id="Vector" d="M90.304 21.6079C95.4424 21.6079 99.6079 17.4424 99.6079 12.304C99.6079 7.16552 95.4424 3 90.304 3C85.1655 3 81 7.16552 81 12.304C81 17.4424 85.1655 21.6079 90.304 21.6079Z" fill="#F40D0D" stroke="white" stroke-miterlimit="10"/>
</g>
<path id="*" d="M89.6724 12.82L86.9124 11.2L87.4524 10.24L90.0524 12.02L89.9524 9H91.0524L90.9524 12.02L93.5524 10.24L94.0924 11.2L91.3324 12.82L94.0924 14.46L93.5524 15.42L90.9524 13.64L91.0524 16.66H89.9524L90.0524 13.64L87.4524 15.42L86.9124 14.46L89.6724 12.82Z" fill="white"/>
</g>
</svg>
