<svg width="49" height="49" viewBox="0 0 49 49" fill="none" xmlns="http://www.w3.org/2000/svg">
<path d="M24.9961 28.6776V26.1406" stroke="#51B74F" stroke-width="1.5" stroke-linecap="round" stroke-linejoin="round"/>
<path fill-rule="evenodd" clip-rule="evenodd" d="M31.19 17.332C32.88 17.332 34.24 18.702 34.24 20.392V23.832C31.78 25.272 28.53 26.142 24.99 26.142C21.45 26.142 18.21 25.272 15.75 23.832V20.382C15.75 18.692 17.12 17.332 18.81 17.332H31.19Z" stroke="#51B74F" stroke-width="1.5" stroke-linecap="round" stroke-linejoin="round"/>
<path d="M28.4961 17.326V16.96C28.4961 15.74 27.5061 14.75 26.2861 14.75H23.7061C22.4861 14.75 21.4961 15.74 21.4961 16.96V17.326" stroke="#51B74F" stroke-width="1.5" stroke-linecap="round" stroke-linejoin="round"/>
<path d="M15.7734 27.4844L15.9624 29.9934C16.0904 31.6844 17.4994 32.9914 19.1944 32.9914H30.7934C32.4884 32.9914 33.8974 31.6844 34.0254 29.9934L34.2144 27.4844" stroke="#51B74F" stroke-width="1.5" stroke-linecap="round" stroke-linejoin="round"/>
<circle cx="24.5" cy="24.5" r="24.5" fill="#51B74F" fill-opacity="0.2"/>
</svg>
