<svg width="18" height="20" viewBox="0 0 18 20" fill="none" xmlns="http://www.w3.org/2000/svg">
<mask id="mask0_5382_35318" style="mask-type:alpha" maskUnits="userSpaceOnUse" x="0" y="0" width="18" height="20">
<path fill-rule="evenodd" clip-rule="evenodd" d="M0 0.0117188H17.0527V19.8652H0V0.0117188Z" fill="white"/>
</mask>
<g mask="url(#mask0_5382_35318)">
<path fill-rule="evenodd" clip-rule="evenodd" d="M4.5731 1.51172C2.9161 1.51172 1.5401 2.85372 1.5011 4.50872V15.2037C1.4641 16.9167 2.8141 18.3277 4.5101 18.3657H12.5741C14.2431 18.2967 15.5651 16.9097 15.5531 15.2097V6.33972L10.9181 1.51172H4.5851H4.5731ZM4.5851 19.8657H4.4761C1.9541 19.8087 -0.0538966 17.7107 0.00110343 15.1877V4.49072C0.0591034 2.00972 2.1081 0.0117188 4.5711 0.0117188H4.5881H11.2381C11.4421 0.0117188 11.6371 0.0947188 11.7791 0.241719L16.8441 5.51872C16.9781 5.65772 17.0531 5.84472 17.0531 6.03772V15.2037C17.0711 17.7127 15.1171 19.7627 12.6041 19.8647L4.5851 19.8657Z" fill="#2B304D" fill-opacity="0.7"/>
</g>
<path fill-rule="evenodd" clip-rule="evenodd" d="M16.2996 6.984H13.5446C11.7146 6.979 10.2266 5.487 10.2266 3.659V0.75C10.2266 0.336 10.5626 0 10.9766 0C11.3906 0 11.7266 0.336 11.7266 0.75V3.659C11.7266 4.663 12.5436 5.481 13.5466 5.484H16.2996C16.7136 5.484 17.0496 5.82 17.0496 6.234C17.0496 6.648 16.7136 6.984 16.2996 6.984Z" fill="#2B304D" fill-opacity="0.7"/>
<path fill-rule="evenodd" clip-rule="evenodd" d="M10.7867 14.1094H5.38672C4.97272 14.1094 4.63672 13.7734 4.63672 13.3594C4.63672 12.9454 4.97272 12.6094 5.38672 12.6094H10.7867C11.2007 12.6094 11.5367 12.9454 11.5367 13.3594C11.5367 13.7734 11.2007 14.1094 10.7867 14.1094Z" fill="#2B304D" fill-opacity="0.7"/>
<path fill-rule="evenodd" clip-rule="evenodd" d="M8.74272 10.3555H5.38672C4.97272 10.3555 4.63672 10.0195 4.63672 9.60547C4.63672 9.19147 4.97272 8.85547 5.38672 8.85547H8.74272C9.15672 8.85547 9.49272 9.19147 9.49272 9.60547C9.49272 10.0195 9.15672 10.3555 8.74272 10.3555Z" fill="#2B304D" fill-opacity="0.7"/>
</svg>
