<svg width="46" height="46" viewBox="0 0 46 46" fill="none" xmlns="http://www.w3.org/2000/svg">
<path d="M22.08 17.3267C22.08 19.9333 19.9333 22.08 17.3267 22.08C14.72 22.08 12.5733 19.9333 12.5733 17.3267C12.5733 14.72 14.72 12.5733 17.3267 12.5733C19.9333 12.5733 22.08 14.72 22.08 17.3267ZM17.3267 23.92C14.72 23.92 12.5733 26.0667 12.5733 28.6733C12.5733 31.28 14.72 33.4267 17.3267 33.4267C19.9333 33.4267 22.08 31.28 22.08 28.6733C22.08 26.0667 19.9333 23.92 17.3267 23.92ZM46 23C46 35.7267 35.7267 46 23 46C10.2733 46 0 35.7267 0 23C0 10.2733 10.2733 0 23 0C35.7267 0 46 10.2733 46 23ZM39.8667 23C39.8667 13.6467 32.3533 6.13333 23 6.13333C13.6467 6.13333 6.13333 13.6467 6.13333 23C6.13333 32.3533 13.6467 39.8667 23 39.8667C32.3533 39.8667 39.8667 32.3533 39.8667 23ZM28.6733 23.92C26.0667 23.92 23.92 26.0667 23.92 28.6733C23.92 31.28 26.0667 33.4267 28.6733 33.4267C31.28 33.4267 33.4267 31.28 33.4267 28.6733C33.4267 26.0667 31.28 23.92 28.6733 23.92ZM28.6733 12.5733C26.0667 12.5733 23.92 14.72 23.92 17.3267C23.92 19.9333 26.0667 22.08 28.6733 22.08C31.28 22.08 33.4267 19.9333 33.4267 17.3267C33.4267 14.72 31.28 12.5733 28.6733 12.5733Z" fill="#F22F46"/>
</svg>
